<svg width="147" height="66" viewBox="0 0 147 66" fill="none" xmlns="http://www.w3.org/2000/svg">
<g clip-path="url(#clip0_1_114)">
<path d="M23.1 0C10.3 0 0 8.5 0 24.8C0 41.1 23.1 65.3 23.1 65.3C23.1 65.3 46.2 41.1 46.2 24.8C46.2 8.5 35.8 0 23.1 0ZM23.1 40.6C13.3 40.6 5.4 32.7 5.4 23C5.4 13.3 13.3 5.4 23.1 5.4C32.9 5.4 40.8 13.3 40.8 23C40.8 32.7 32.9 40.6 23.1 40.6Z" fill="#103977"/>
<path d="M26.9018 20.0998C26.7018 20.2998 26.5018 20.5998 26.4018 20.8998C26.3018 21.0998 26.3018 21.1998 26.3018 21.3998C26.3018 21.4998 26.3018 21.5998 26.3018 21.6998C26.3018 21.7998 26.3018 21.8998 26.3018 21.9998C26.4018 21.9998 26.5018 21.9998 26.6018 21.9998C26.7018 21.9998 26.8018 21.9998 26.9018 21.8998C27.1018 21.7998 27.2018 21.7998 27.4018 21.6998C27.7018 21.4998 27.9018 21.2998 28.1018 21.0998C28.3018 20.8998 28.5018 20.5998 28.6018 20.2998C28.7018 20.0998 28.7018 19.9998 28.7018 19.7998C28.7018 19.6998 28.7018 19.5998 28.7018 19.4998C28.7018 19.3998 28.7018 19.2998 28.7018 19.1998C28.6018 19.1998 28.5018 19.1998 28.4018 19.1998C28.3018 19.1998 28.2018 19.1998 28.1018 19.2998C27.9018 19.3998 27.8018 19.3998 27.6018 19.4998C27.4018 19.6998 27.1018 19.8998 26.9018 20.0998Z" fill="#0796D6"/>
<path d="M26.202 16.0998C26.202 16.1998 26.202 16.2998 26.202 16.3998C26.202 16.4998 26.202 16.5998 26.302 16.6998C26.402 16.6998 26.502 16.5998 26.602 16.5998C26.702 16.5998 26.802 16.4998 26.802 16.4998C26.902 16.3998 27.102 16.2998 27.202 16.1998C27.402 15.9998 27.602 15.6998 27.702 15.3998C27.802 15.0998 27.902 14.7998 28.002 14.4998C28.002 14.2998 28.002 14.1998 28.002 13.9998C28.002 13.8998 28.002 13.7998 28.002 13.6998C28.002 13.5998 28.002 13.4998 27.902 13.3998C27.802 13.3998 27.702 13.4998 27.602 13.4998C27.502 13.4998 27.402 13.5998 27.402 13.5998C27.302 13.6998 27.102 13.7998 27.002 13.8998C26.802 14.0998 26.602 14.3998 26.502 14.6998C26.402 14.9998 26.302 15.2998 26.202 15.5998C26.102 15.6998 26.102 15.8998 26.202 16.0998Z" fill="#0796D6"/>
<path d="M26.7016 19.4998C26.8016 19.3998 27.0016 19.2998 27.1016 19.1998C27.3016 18.9998 27.5016 18.6998 27.6016 18.3998C27.7016 18.0998 27.8016 17.7998 27.8016 17.4998C27.8016 17.2998 27.8016 17.1998 27.8016 16.9998C27.8016 16.8998 27.8016 16.7998 27.8016 16.6998C27.8016 16.5998 27.8016 16.4998 27.7016 16.3998C27.6016 16.3998 27.5016 16.4998 27.4016 16.4998C27.3016 16.4998 27.2016 16.5998 27.2016 16.6998C27.1016 16.7998 26.9016 16.8998 26.8016 16.9998C26.6016 17.1998 26.4016 17.4998 26.3016 17.7998C26.2016 18.0998 26.1016 18.3998 26.1016 18.6998C26.1016 18.8998 26.1016 18.9998 26.1016 19.1998C26.1016 19.2998 26.1016 19.3998 26.1016 19.4998C26.1016 19.5998 26.1016 19.6998 26.2016 19.7998C26.3016 19.7998 26.4016 19.6998 26.5016 19.6998C26.6016 19.5998 26.7016 19.5998 26.7016 19.4998Z" fill="#0796D6"/>
<path d="M25.0023 13.5998C25.0023 13.6998 25.1023 13.7998 25.1023 13.8998C25.1023 13.9998 25.2023 14.0998 25.3023 14.1998C25.4023 14.0998 25.5023 14.0998 25.5023 13.9998C25.6023 13.8998 25.6023 13.8998 25.7023 13.7998C25.8023 13.6998 25.9023 13.4998 26.0023 13.3998C26.1023 13.0998 26.2023 12.7998 26.3023 12.4998C26.3023 12.1998 26.3023 11.8998 26.3023 11.5998C26.3023 11.3998 26.2023 11.2998 26.2023 11.0998C26.2023 10.9998 26.1023 10.8998 26.1023 10.7998C26.1023 10.6998 26.0023 10.5998 25.9023 10.4998C25.8023 10.5998 25.7023 10.5998 25.7023 10.6998C25.6023 10.7998 25.6023 10.7998 25.5023 10.8998C25.4023 10.9998 25.3023 11.1998 25.2023 11.2998C25.1023 11.5998 25.0023 11.8998 24.9023 12.1998C24.9023 12.4998 24.9023 12.7998 24.9023 13.0998C24.9023 13.1998 24.9023 13.3998 25.0023 13.5998Z" fill="#0796D6"/>
<path d="M28.9016 18.5999C29.0016 18.5999 29.1016 18.4999 29.2016 18.4999C29.4016 18.3999 29.5016 18.2999 29.6016 18.1999C29.9016 17.9999 30.1016 17.7999 30.3016 17.4999C30.5016 17.1999 30.6016 16.9999 30.7016 16.6999C30.7016 16.4999 30.8016 16.3999 30.8016 16.1999C30.8016 16.0999 30.8016 15.9999 30.8016 15.8999C30.8016 15.7999 30.8016 15.6999 30.8016 15.5999C30.7016 15.5999 30.6016 15.5999 30.5016 15.6999C30.4016 15.6999 30.3016 15.7999 30.2016 15.7999C30.0016 15.8999 29.9016 15.9999 29.8016 16.0999C29.5016 16.2999 29.3016 16.4999 29.1016 16.7999C28.9016 17.0999 28.8016 17.2999 28.7016 17.5999C28.7016 17.7999 28.6016 17.8999 28.6016 18.0999C28.6016 18.1999 28.6016 18.2999 28.6016 18.3999C28.6016 18.4999 28.6016 18.5999 28.6016 18.6999C28.7016 18.5999 28.8016 18.5999 28.9016 18.5999Z" fill="#0796D6"/>
<path d="M23.1023 27.3998C24.3023 27.3998 25.3023 26.3998 25.3023 25.1998C25.3023 23.9998 24.3023 22.9998 23.1023 22.9998C21.9023 22.9998 20.9023 23.9998 20.9023 25.1998C20.9023 26.3998 21.9023 27.3998 23.1023 27.3998Z" fill="#0796D6"/>
<path d="M24.102 18.1999C24.102 18.2999 24.202 18.3999 24.202 18.4999C24.202 18.5999 24.302 18.6999 24.302 18.7999C24.402 18.6999 24.502 18.6999 24.502 18.5999C24.602 18.4999 24.602 18.4999 24.702 18.3999C24.802 18.2999 24.902 18.0999 25.002 17.9999C25.202 17.6999 25.302 17.3999 25.402 17.0999C25.502 16.7999 25.502 16.4999 25.502 16.1999C25.502 15.9999 25.502 15.8999 25.402 15.6999C25.402 15.5999 25.302 15.4999 25.302 15.3999C25.302 15.2999 25.202 15.1999 25.202 15.0999C25.102 15.1999 25.002 15.1999 25.002 15.2999C24.902 15.3999 24.902 15.3999 24.802 15.4999C24.702 15.5999 24.602 15.7999 24.502 15.8999C24.302 16.1999 24.202 16.4999 24.102 16.7999C24.002 16.9999 24.002 17.3999 24.002 17.6999C24.002 17.7999 24.102 17.9999 24.102 18.1999Z" fill="#0796D6"/>
<path d="M25.7016 20.1999C25.7016 19.9999 25.7016 19.8999 25.6016 19.6999C25.6016 19.5999 25.6016 19.4999 25.5016 19.3999C25.5016 19.2999 25.4016 19.1999 25.4016 19.0999C25.3016 19.0999 25.2016 19.1999 25.1016 19.2999C25.0016 19.3999 25.0016 19.3999 24.9016 19.4999C24.8016 19.5999 24.7016 19.6999 24.6016 19.8999C24.4016 20.1999 24.3016 20.3999 24.2016 20.6999C24.1016 20.9999 24.1016 21.2999 24.1016 21.5999C24.1016 21.7999 24.1016 21.8999 24.2016 22.0999C24.2016 22.1999 24.2016 22.2999 24.3016 22.3999C24.3016 22.4999 24.4016 22.5999 24.4016 22.6999C24.5016 22.6999 24.6016 22.5999 24.7016 22.4999C24.8016 22.3999 24.8016 22.3999 24.9016 22.2999C25.0016 22.1999 25.1016 22.0999 25.2016 21.8999C25.4016 21.5999 25.5016 21.3999 25.6016 21.0999C25.7016 20.8999 25.7016 20.5999 25.7016 20.1999Z" fill="#0796D6"/>
<path d="M28.7016 15.3998C28.8016 15.3998 28.9016 15.2998 29.0016 15.2998C29.1016 15.2998 29.2016 15.1998 29.2016 15.1998C29.4016 15.0998 29.5016 14.9998 29.6016 14.8998C29.8016 14.6998 30.0016 14.3998 30.2016 14.1998C30.4016 13.8998 30.5016 13.5998 30.5016 13.2998C30.5016 13.0998 30.6016 12.9998 30.6016 12.7998C30.6016 12.6998 30.6016 12.5998 30.6016 12.4998C30.6016 12.3998 30.6016 12.2998 30.5016 12.1998C30.4016 12.1998 30.3016 12.2998 30.2016 12.2998C30.1016 12.2998 30.0016 12.3998 30.0016 12.3998C29.8016 12.4998 29.7016 12.5998 29.6016 12.6998C29.4016 12.8998 29.2016 13.1998 29.0016 13.3998C28.8016 13.6998 28.7016 13.9998 28.7016 14.2998C28.7016 14.4998 28.6016 14.5998 28.6016 14.7998C28.6016 14.8998 28.6016 14.9998 28.6016 15.0998C28.7016 15.1998 28.7016 15.2998 28.7016 15.3998Z" fill="#0796D6"/>
<path d="M20.602 19.6999C20.602 19.8999 20.502 19.9999 20.502 20.1999C20.502 20.4999 20.502 20.7999 20.602 21.0999C20.702 21.3999 20.802 21.6999 21.002 21.8999C21.102 21.9999 21.202 22.1999 21.302 22.2999C21.402 22.3999 21.402 22.3999 21.502 22.4999C21.602 22.5999 21.702 22.5999 21.802 22.6999C21.902 22.5999 21.902 22.4999 21.902 22.3999C21.902 22.2999 22.002 22.1999 22.002 22.0999C22.002 21.8999 22.102 21.7999 22.102 21.5999C22.102 21.2999 22.102 20.9999 22.002 20.6999C21.902 20.3999 21.802 20.0999 21.602 19.8999C21.502 19.7999 21.402 19.5999 21.302 19.4999C21.202 19.3999 21.202 19.3999 21.102 19.2999C21.002 19.1999 20.902 19.1999 20.802 19.0999C20.702 19.1999 20.702 19.2999 20.702 19.3999C20.602 19.5999 20.602 19.5999 20.602 19.6999Z" fill="#0796D6"/>
<path d="M31.4016 23.4999C31.5016 23.3999 31.7016 23.2999 31.8016 23.1999C31.9016 23.0999 31.9016 23.0999 32.0016 22.9999C32.1016 22.8999 32.1016 22.8999 32.2016 22.7999C32.1016 22.7999 32.0016 22.6999 31.9016 22.6999C31.8016 22.6999 31.7016 22.6999 31.6016 22.5999C31.4016 22.5999 31.3016 22.5999 31.1016 22.5999C30.8016 22.5999 30.5016 22.6999 30.2016 22.7999C29.9016 22.8999 29.6016 22.9999 29.4016 23.1999C29.3016 23.2999 29.1016 23.3999 29.0016 23.4999C28.9016 23.5999 28.9016 23.5999 28.8016 23.6999C28.7016 23.7999 28.7016 23.7999 28.6016 23.8999C28.7016 23.8999 28.8016 23.9999 28.9016 23.9999C29.0016 23.9999 29.1016 23.9999 29.2016 24.0999C29.4016 24.0999 29.5016 24.0999 29.7016 24.0999C30.0016 24.0999 30.3016 23.9999 30.6016 23.8999C30.9016 23.7999 31.1016 23.6999 31.4016 23.4999Z" fill="#0796D6"/>
<path d="M31.3021 21.9998C31.6021 21.8998 31.9021 21.7998 32.2021 21.5998C32.5021 21.3998 32.7021 21.1998 32.9021 20.9998C33.0021 20.8998 33.1021 20.6998 33.2021 20.5998C33.2021 20.4998 33.3021 20.3998 33.3021 20.2998C33.3021 20.1998 33.4021 20.0998 33.4021 19.9998C33.3021 19.9998 33.2021 19.9998 33.1021 19.9998C33.0021 19.9998 32.9021 19.9998 32.8021 19.9998C32.6021 19.9998 32.5021 19.9998 32.3021 20.0998C32.0021 20.1998 31.7021 20.2998 31.4021 20.4998C31.1021 20.6998 30.9021 20.8998 30.7021 21.0998C30.6021 21.1998 30.5021 21.3998 30.4021 21.4998C30.4021 21.5998 30.3021 21.6998 30.3021 21.7998C30.3021 21.8998 30.2021 21.9998 30.2021 22.0998C30.3021 22.0998 30.4021 22.0998 30.5021 22.0998C30.6021 22.0998 30.7021 22.0998 30.8021 22.0998C31.0021 22.0998 31.1021 22.0998 31.3021 21.9998Z" fill="#0796D6"/>
<path d="M27.602 23.6999C27.902 23.5999 28.202 23.4999 28.402 23.2999C28.702 23.0999 28.902 22.8999 29.102 22.5999C29.202 22.4999 29.302 22.2999 29.402 22.1999C29.402 22.0999 29.502 21.9999 29.502 21.8999C29.502 21.7999 29.602 21.6999 29.602 21.5999C29.502 21.5999 29.402 21.5999 29.302 21.5999C29.202 21.5999 29.102 21.5999 29.002 21.5999C28.802 21.5999 28.702 21.6999 28.502 21.6999C28.202 21.7999 27.902 21.8999 27.702 22.0999C27.402 22.2999 27.202 22.4999 27.002 22.7999C26.902 22.8999 26.802 23.0999 26.702 23.1999C26.702 23.2999 26.602 23.3999 26.602 23.4999C26.602 23.5999 26.502 23.6999 26.502 23.7999C26.602 23.7999 26.702 23.7999 26.802 23.7999C26.902 23.7999 27.002 23.7999 27.102 23.7999C27.302 23.7999 27.402 23.7999 27.602 23.6999Z" fill="#0796D6"/>
<path d="M32.102 24.7998C32.302 24.7998 32.402 24.8998 32.602 24.8998C32.902 24.8998 33.202 24.8998 33.502 24.7998C33.802 24.6998 34.102 24.5998 34.402 24.3998C34.502 24.2998 34.702 24.1998 34.802 24.0998C34.902 23.9998 34.902 23.9998 35.002 23.8998C35.102 23.7998 35.102 23.6998 35.202 23.6998C35.102 23.5998 35.002 23.5998 34.902 23.5998C34.802 23.5998 34.702 23.4998 34.602 23.4998C34.402 23.4998 34.302 23.3998 34.102 23.3998C33.802 23.3998 33.502 23.3998 33.202 23.4998C32.902 23.5998 32.602 23.6998 32.302 23.8998C32.202 23.9998 32.002 24.0998 31.902 24.1998C31.802 24.2998 31.802 24.2998 31.702 24.3998C31.602 24.4998 31.602 24.5998 31.502 24.5998C31.602 24.6998 31.702 24.6998 31.802 24.6998C31.902 24.7998 32.002 24.7998 32.102 24.7998Z" fill="#0796D6"/>
<path d="M36.5021 22.3998C36.4021 22.4998 36.2021 22.5998 36.1021 22.6998C36.0021 22.7998 36.0021 22.7998 35.9021 22.8998C35.8021 22.9998 35.8021 23.0998 35.7021 23.0998C35.8021 23.1998 35.9021 23.1998 36.0021 23.1998C36.1021 23.1998 36.2021 23.2998 36.3021 23.2998C36.5021 23.3998 36.6021 23.3998 36.8021 23.3998C37.1021 23.3998 37.4021 23.3998 37.7021 23.2998C38.0021 23.1998 38.3021 23.0998 38.6021 22.8998C38.7021 22.7998 38.9021 22.6998 39.0021 22.5998C39.1021 22.4998 39.1021 22.4998 39.2021 22.3998C39.3021 22.2998 39.3021 22.2998 39.4021 22.1998C39.3021 22.0998 39.2021 22.0998 39.1021 22.0998C39.0021 22.0998 38.9021 21.9998 38.8021 21.9998C38.6021 21.9998 38.5021 21.9998 38.3021 21.9998C38.0021 21.9998 37.7021 21.9998 37.4021 22.0998C37.0021 22.0998 36.8021 22.1998 36.5021 22.3998Z" fill="#0796D6"/>
<path d="M32.6021 17.8998C32.4021 18.0998 32.2021 18.2998 32.0021 18.5998C31.9021 18.6998 31.8021 18.8998 31.8021 19.0998C31.8021 19.1998 31.7021 19.2998 31.7021 19.3998C31.7021 19.4998 31.7021 19.5998 31.7021 19.6998C31.8021 19.6998 31.9021 19.6998 32.0021 19.6998C32.1021 19.6998 32.2021 19.6998 32.3021 19.6998C32.5021 19.6998 32.6021 19.5998 32.8021 19.5998C33.1021 19.4998 33.4021 19.2998 33.6021 19.0998C33.8021 18.8998 34.0021 18.6998 34.2021 18.3998C34.3021 18.2998 34.4021 18.0998 34.4021 17.8998C34.4021 17.7998 34.5021 17.6998 34.5021 17.5998C34.5021 17.4998 34.5021 17.3998 34.5021 17.2998C34.4021 17.2998 34.3021 17.2998 34.2021 17.2998C34.1021 17.2998 34.0021 17.2998 33.9021 17.2998C33.7021 17.2998 33.6021 17.3998 33.4021 17.4998C33.1021 17.4998 32.9021 17.6998 32.6021 17.8998Z" fill="#0796D6"/>
<path d="M35.8016 21.4998C35.9016 21.3998 35.9016 21.3998 36.0016 21.2998C36.1016 21.1998 36.1016 21.0998 36.1016 20.9998C36.0016 20.9998 35.9016 20.8998 35.8016 20.8998C35.7016 20.8998 35.6016 20.8998 35.5016 20.7998C35.3016 20.7998 35.2016 20.7998 35.0016 20.7998C34.7016 20.7998 34.4016 20.8998 34.1016 20.9998C33.8016 21.0998 33.5016 21.2998 33.3016 21.4998C33.2016 21.5998 33.1016 21.6998 32.9016 21.8998C32.8016 21.9998 32.8016 21.9998 32.7016 22.0998C32.6016 22.1998 32.6016 22.2998 32.6016 22.3998C32.7016 22.3998 32.8016 22.4998 32.9016 22.4998C33.0016 22.4998 33.1016 22.4998 33.2016 22.5998C33.4016 22.5998 33.5016 22.5998 33.7016 22.5998C34.0016 22.5998 34.3016 22.4998 34.6016 22.3998C34.9016 22.2998 35.2016 22.0998 35.4016 21.8998C35.5016 21.6998 35.7016 21.5998 35.8016 21.4998Z" fill="#0796D6"/>
<path d="M30.3023 18.4998C30.0023 18.6998 29.8023 18.8998 29.6023 19.0998C29.4023 19.2998 29.2023 19.5998 29.1023 19.8998C29.0023 19.9998 29.0023 20.1998 28.9023 20.3998C28.9023 20.4998 28.9023 20.5998 28.9023 20.6998C28.9023 20.7998 28.9023 20.8998 28.9023 20.9998C29.0023 20.9998 29.1023 20.9998 29.2023 20.9998C29.3023 20.9998 29.4023 20.9998 29.5023 20.8998C29.7023 20.7998 29.8023 20.7998 30.0023 20.6998C30.3023 20.4998 30.5023 20.2998 30.7023 20.0998C30.9023 19.8998 31.1023 19.5998 31.2023 19.2998C31.3023 19.0998 31.3023 18.9998 31.4023 18.7998C31.4023 18.6998 31.4023 18.5998 31.4023 18.4998C31.4023 18.3998 31.4023 18.2998 31.4023 18.1998C31.3023 18.1998 31.2023 18.1998 31.1023 18.1998C31.0023 18.1998 30.9023 18.1998 30.8023 18.2998C30.6023 18.3998 30.5023 18.3998 30.3023 18.4998Z" fill="#0796D6"/>
<path d="M31.7023 17.2998C31.8023 17.2998 31.9023 17.1998 32.0023 17.1998C32.2023 17.0998 32.3023 17.0998 32.5023 16.9998C32.8023 16.7998 33.0023 16.5998 33.2023 16.3998C33.4023 16.1998 33.6023 15.8998 33.7023 15.5998C33.8023 15.3998 33.8023 15.2998 33.8023 15.0998C33.8023 14.9998 33.8023 14.8998 33.8023 14.7998C33.8023 14.6998 33.8023 14.5998 33.8023 14.4998C33.7023 14.4998 33.6023 14.4998 33.5023 14.5998C33.4023 14.5998 33.3023 14.6998 33.2023 14.6998C33.0023 14.7998 32.9023 14.7998 32.7023 14.8998C32.4023 15.0998 32.2023 15.2998 32.0023 15.4998C31.8023 15.6998 31.6023 15.9998 31.5023 16.2998C31.4023 16.4998 31.4023 16.5998 31.4023 16.7998C31.4023 16.8998 31.4023 16.9998 31.4023 17.0998C31.4023 17.1998 31.4023 17.2998 31.4023 17.3998C31.5023 17.2998 31.6023 17.2998 31.7023 17.2998Z" fill="#0796D6"/>
<path d="M34.3021 19.5998C34.3021 19.6998 34.2021 19.7998 34.2021 19.8998C34.3021 19.8998 34.4021 19.8998 34.5021 19.9998C34.6021 19.9998 34.7021 19.9998 34.8021 19.9998C35.0021 19.9998 35.1021 19.9998 35.3021 19.8998C35.6021 19.7998 35.9021 19.6998 36.2021 19.5998C36.5021 19.3998 36.7021 19.1998 36.9021 18.9998C37.0021 18.8998 37.1021 18.6998 37.2021 18.5998C37.2021 18.4998 37.3021 18.3998 37.3021 18.3998C37.3021 18.2998 37.4021 18.1998 37.4021 18.0998C37.3021 18.0998 37.2021 18.0998 37.1021 17.9998C37.0021 17.9998 36.9021 17.9998 36.8021 17.9998C36.6021 17.9998 36.5021 17.9998 36.3021 18.0998C36.0021 18.1998 35.7021 18.2998 35.4021 18.3998C35.1021 18.5998 34.9021 18.7998 34.7021 18.9998C34.6021 19.0998 34.5021 19.2998 34.4021 19.3998C34.3021 19.4998 34.3021 19.4998 34.3021 19.5998Z" fill="#0796D6"/>
<path d="M27.2016 25.8998C27.4016 25.9998 27.5016 25.9998 27.7016 25.9998C28.0016 26.0998 28.3016 26.0998 28.6016 25.9998C28.9016 25.9998 29.2016 25.8998 29.5016 25.6998C29.6016 25.5998 29.8016 25.4998 29.9016 25.3998C30.0016 25.2998 30.0016 25.2998 30.1016 25.1998C30.2016 25.0998 30.2016 25.0998 30.3016 24.9998C30.2016 24.8998 30.1016 24.8998 30.0016 24.7998C29.9016 24.7998 29.8016 24.6998 29.7016 24.6998C29.5016 24.5998 29.4016 24.5998 29.2016 24.5998C28.9016 24.4998 28.6016 24.4998 28.3016 24.5998C28.0016 24.5998 27.7016 24.6998 27.4016 24.8998C27.3016 24.9998 27.1016 25.0998 27.0016 25.1998C26.9016 25.2998 26.9016 25.2998 26.8016 25.3998C26.7016 25.4998 26.7016 25.4998 26.6016 25.5998C26.7016 25.6998 26.8016 25.6998 26.9016 25.7998C27.1016 25.7998 27.2016 25.8998 27.2016 25.8998Z" fill="#0796D6"/>
<path d="M12.502 14.9998C12.502 15.1998 12.602 15.2998 12.602 15.4998C12.702 15.7998 12.902 16.0998 13.102 16.2998C13.302 16.4998 13.502 16.7998 13.802 16.8998C13.902 16.9998 14.102 17.0998 14.302 17.0998C14.402 17.0998 14.502 17.1998 14.602 17.1998C14.702 17.1998 14.802 17.1998 14.902 17.2998C14.902 17.1998 14.902 17.0998 14.902 16.9998C14.902 16.8998 14.902 16.7998 14.902 16.6998C14.902 16.4998 14.802 16.3998 14.802 16.1998C14.702 15.8998 14.502 15.5998 14.302 15.3998C14.102 15.1998 13.902 14.8998 13.602 14.7998C13.502 14.6998 13.302 14.5998 13.102 14.5998C13.002 14.5998 12.902 14.4998 12.802 14.4998C12.702 14.4998 12.602 14.4998 12.502 14.3998C12.502 14.4998 12.502 14.5998 12.502 14.6998C12.502 14.7998 12.502 14.8998 12.502 14.9998Z" fill="#0796D6"/>
<path d="M19.7021 23.4999C19.7021 23.3999 19.6021 23.2999 19.6021 23.1999C19.5021 22.9999 19.4021 22.8999 19.3021 22.7999C19.1021 22.4999 18.9021 22.2999 18.6021 22.0999C18.3021 21.8999 18.1021 21.7999 17.8021 21.6999C17.6021 21.6999 17.5021 21.5999 17.3021 21.5999C17.2021 21.5999 17.1021 21.5999 17.0021 21.5999C16.9021 21.5999 16.8021 21.5999 16.7021 21.5999C16.7021 21.6999 16.7021 21.7999 16.8021 21.8999C16.8021 21.9999 16.9021 22.0999 16.9021 22.1999C17.0021 22.3999 17.1021 22.4999 17.2021 22.5999C17.4021 22.8999 17.6021 23.0999 17.9021 23.2999C18.2021 23.4999 18.4021 23.5999 18.7021 23.6999C18.9021 23.6999 19.0021 23.7999 19.2021 23.7999C19.3021 23.7999 19.4021 23.7999 19.5021 23.7999C19.6021 23.7999 19.7021 23.7999 19.8021 23.7999C19.7021 23.6999 19.7021 23.5999 19.7021 23.4999Z" fill="#0796D6"/>
<path d="M13.4018 19.9998C13.3018 19.9998 13.2018 19.9998 13.1018 19.9998C13.0018 19.9998 12.9018 19.9998 12.8018 19.9998C12.8018 20.0998 12.9018 20.1998 12.9018 20.2998C12.9018 20.3998 13.0018 20.4998 13.0018 20.5998C13.1018 20.7998 13.2018 20.8998 13.3018 20.9998C13.5018 21.2998 13.7018 21.4998 14.0018 21.5998C14.3018 21.7998 14.5018 21.8998 14.9018 21.9998C15.1018 21.9998 15.2018 22.0998 15.4018 22.0998C15.5018 22.0998 15.6018 22.0998 15.7018 22.0998C15.8018 22.0998 15.9018 22.0998 16.0018 22.0998C16.0018 21.9998 15.9018 21.8998 15.9018 21.7998C15.9018 21.6998 15.8018 21.5998 15.8018 21.4998C15.7018 21.2998 15.6018 21.1998 15.5018 21.0998C15.3018 20.7998 15.1018 20.5998 14.8018 20.4998C14.5018 20.2998 14.2018 20.1998 13.9018 20.0998C13.8018 20.0998 13.6018 19.9998 13.4018 19.9998Z" fill="#0796D6"/>
<path d="M15.5023 16.6999C15.6023 16.9999 15.7023 17.2999 15.9023 17.4999C16.1023 17.7999 16.3023 17.9999 16.6023 18.1999C16.7023 18.2999 16.9023 18.3999 17.0023 18.4999C17.1023 18.4999 17.2023 18.5999 17.3023 18.5999C17.4023 18.5999 17.5023 18.6999 17.6023 18.6999C17.6023 18.5999 17.6023 18.4999 17.6023 18.3999C17.6023 18.2999 17.6023 18.1999 17.6023 18.0999C17.6023 17.8999 17.5023 17.7999 17.5023 17.5999C17.4023 17.2999 17.3023 16.9999 17.1023 16.7999C16.9023 16.4999 16.7023 16.2999 16.4023 16.0999C16.3023 15.9999 16.1023 15.8999 16.0023 15.7999C15.9023 15.7999 15.8023 15.6999 15.7023 15.6999C15.6023 15.6999 15.5023 15.5999 15.4023 15.5999C15.4023 15.6999 15.4023 15.7999 15.4023 15.8999C15.4023 15.9999 15.4023 16.0999 15.4023 16.1999C15.4023 16.3999 15.5023 16.4999 15.5023 16.6999Z" fill="#0796D6"/>
<path d="M23.4018 17.7998C23.4018 17.6998 23.3018 17.5998 23.2018 17.5998C23.1018 17.4998 23.1018 17.3998 23.0018 17.3998C22.9018 17.4998 22.9018 17.5998 22.8018 17.5998C22.7018 17.6998 22.7018 17.7998 22.7018 17.7998C22.6018 17.9998 22.5018 18.0998 22.5018 18.2998C22.4018 18.5998 22.3018 18.8998 22.3018 19.1998C22.3018 19.4998 22.3018 19.7998 22.5018 20.0998C22.6018 20.2998 22.6018 20.3998 22.7018 20.5998C22.7018 20.6998 22.8018 20.7998 22.8018 20.7998C23.0018 20.8998 23.0018 20.9998 23.1018 20.9998C23.2018 20.8998 23.2018 20.7998 23.3018 20.7998C23.4018 20.6998 23.4018 20.5998 23.5018 20.5998C23.6018 20.3998 23.7018 20.2998 23.7018 20.0998C23.8018 19.7998 23.9018 19.4998 23.9018 19.1998C23.9018 18.8998 23.9018 18.5998 23.7018 18.2998C23.6018 18.0998 23.5018 17.8998 23.4018 17.7998Z" fill="#0796D6"/>
<path d="M14.9023 18.7998C14.9023 18.9998 15.0023 19.0998 15.1023 19.2998C15.2023 19.5998 15.4023 19.8998 15.6023 20.0998C15.8023 20.2998 16.0023 20.4998 16.3023 20.6998C16.4023 20.7998 16.6023 20.8998 16.8023 20.8998C16.9023 20.8998 17.0023 20.9998 17.1023 20.9998C17.2023 20.9998 17.3023 20.9998 17.4023 20.9998C17.4023 20.8998 17.4023 20.7998 17.4023 20.6998C17.4023 20.5998 17.4023 20.4998 17.4023 20.3998C17.4023 20.1998 17.3023 20.0998 17.2023 19.8998C17.1023 19.5998 16.9023 19.2998 16.7023 19.0998C16.5023 18.8998 16.3023 18.6998 16.0023 18.4998C15.9023 18.3998 15.7023 18.2998 15.5023 18.2998C15.4023 18.2998 15.3023 18.1998 15.2023 18.1998C15.1023 18.1998 15.0023 18.1998 14.9023 18.1998C14.9023 18.2998 14.9023 18.3998 14.9023 18.4998C14.9023 18.5998 14.9023 18.6998 14.9023 18.7998Z" fill="#0796D6"/>
<path d="M11.9018 17.6998C12.0018 17.8998 12.0018 17.9998 12.1018 18.1998C12.3018 18.4998 12.5018 18.6998 12.7018 18.8998C12.9018 19.0998 13.2018 19.2998 13.5018 19.3998C13.7018 19.4998 13.8018 19.4998 14.0018 19.4998C14.1018 19.4998 14.2018 19.4998 14.3018 19.4998C14.4018 19.4998 14.5018 19.4998 14.6018 19.4998C14.6018 19.3998 14.6018 19.2998 14.6018 19.1998C14.6018 19.0998 14.6018 18.9998 14.5018 18.8998C14.4018 18.6998 14.4018 18.5998 14.3018 18.3998C14.1018 18.0998 13.9018 17.8998 13.7018 17.6998C13.5018 17.4998 13.2018 17.2998 12.9018 17.1998C12.7018 17.0998 12.6018 17.0998 12.4018 16.9998C12.3018 16.9998 12.2018 16.9998 12.1018 16.9998C12.0018 16.9998 11.9018 16.9998 11.8018 16.9998C11.8018 17.0998 11.8018 17.1998 11.8018 17.2998C11.8018 17.5998 11.8018 17.6998 11.9018 17.6998Z" fill="#0796D6"/>
<path d="M23.1016 28.0998C22.0016 26.6998 16.0016 28.0998 6.60156 23.4998C11.8016 27.8998 17.0016 28.3998 19.9016 28.8998C21.4016 29.1998 21.1016 35.1998 20.3016 35.5998H23.0016H25.7016C24.9016 35.1998 24.6016 29.0998 26.1016 28.8998C29.1016 28.3998 34.2016 27.7998 39.4016 23.4998C30.2016 28.0998 24.2016 26.6998 23.1016 28.0998Z" fill="#0796D6"/>
<path d="M7.30176 22.7998C7.40176 22.8998 7.60176 22.9998 7.70176 23.0998C8.00176 23.2998 8.30176 23.3998 8.60176 23.4998C8.90176 23.5998 9.20176 23.5998 9.50176 23.5998C9.70176 23.5998 9.80176 23.4998 10.0018 23.4998C10.1018 23.4998 10.2018 23.3998 10.3018 23.3998C10.4018 23.3998 10.5018 23.2998 10.6018 23.2998C10.5018 23.1998 10.5018 23.0998 10.4018 23.0998C10.3018 22.9998 10.3018 22.9998 10.2018 22.8998C10.1018 22.7998 9.90176 22.6998 9.80176 22.5998C9.50176 22.3998 9.20176 22.2998 8.90176 22.2998C8.50176 21.9998 8.20176 21.8998 7.90176 21.9998C7.70176 21.9998 7.60176 22.0998 7.40176 22.0998C7.30176 22.0998 7.20176 22.1998 7.10176 22.1998C7.00176 22.1998 6.90176 22.2998 6.80176 22.2998C6.90176 22.3998 6.90176 22.4998 7.00176 22.4998C7.10176 22.5998 7.20176 22.6998 7.30176 22.7998Z" fill="#0796D6"/>
<path d="M9.00176 18.5998C9.10176 18.7998 9.20176 18.8998 9.30176 18.9998C9.50176 19.1998 9.80176 19.3998 10.0018 19.5998C10.3018 19.7998 10.6018 19.8998 10.9018 19.8998C11.1018 19.8998 11.2018 19.9998 11.4018 19.9998C11.5018 19.9998 11.6018 19.9998 11.7018 19.9998C11.8018 19.9998 11.9018 19.9998 12.0018 19.8998C12.0018 19.7998 11.9018 19.6998 11.9018 19.5998C11.9018 19.4998 11.8018 19.3998 11.8018 19.3998C11.7018 19.1998 11.6018 19.0998 11.5018 18.9998C11.3018 18.7998 11.0018 18.5998 10.8018 18.3998C10.5018 18.1998 10.2018 18.0998 9.90176 18.0998C9.70176 18.0998 9.60176 18.0998 9.40176 17.9998C9.30176 17.9998 9.20176 17.9998 9.10176 17.9998C9.00176 17.9998 8.90176 17.9998 8.80176 17.9998C8.80176 18.0998 8.90176 18.1998 8.90176 18.2998C8.90176 18.3998 9.00176 18.4998 9.00176 18.5998Z" fill="#0796D6"/>
<path d="M15.902 14.1998C16.102 14.4998 16.302 14.6998 16.502 14.8998C16.602 14.9998 16.802 15.0998 16.902 15.1998C17.002 15.1998 17.102 15.2998 17.102 15.2998C17.202 15.2998 17.302 15.3998 17.402 15.3998C17.402 15.2998 17.402 15.1998 17.502 15.0998C17.502 14.9998 17.502 14.8998 17.502 14.7998C17.502 14.5998 17.502 14.4998 17.402 14.2998C17.302 13.9998 17.202 13.6998 17.102 13.3998C16.902 13.0998 16.702 12.8998 16.502 12.6998C16.402 12.5998 16.202 12.4998 16.102 12.3998C16.002 12.3998 15.902 12.2998 15.902 12.2998C15.802 12.2998 15.702 12.1998 15.602 12.1998C15.602 12.2998 15.602 12.3998 15.502 12.4998C15.502 12.5998 15.502 12.6998 15.502 12.7998C15.502 12.9998 15.502 13.0998 15.602 13.2998C15.602 13.5998 15.702 13.8998 15.902 14.1998Z" fill="#0796D6"/>
<path d="M19.3018 16.9998C19.2018 16.8998 19.1018 16.7998 18.9018 16.6998C18.8018 16.5998 18.7018 16.5998 18.7018 16.4998C18.6018 16.4998 18.5018 16.3998 18.4018 16.3998C18.4018 16.4998 18.3018 16.5998 18.3018 16.6998C18.3018 16.7998 18.3018 16.8998 18.3018 16.9998C18.3018 17.1998 18.3018 17.2998 18.3018 17.4998C18.3018 17.7998 18.4018 18.0998 18.5018 18.3998C18.6018 18.6998 18.8018 18.8998 19.0018 19.1998C19.1018 19.2998 19.2018 19.3998 19.4018 19.4998C19.5018 19.5998 19.6018 19.5998 19.6018 19.6998C19.7018 19.6998 19.8018 19.7998 19.9018 19.7998C19.9018 19.6998 20.0018 19.5998 20.0018 19.4998C20.0018 19.3998 20.0018 19.2998 20.0018 19.1998C20.0018 18.9998 20.0018 18.8998 20.0018 18.6998C20.0018 18.3998 19.9018 18.0998 19.8018 17.7998C19.7018 17.4998 19.6018 17.2998 19.3018 16.9998Z" fill="#0796D6"/>
<path d="M21.0021 15.0999C20.9021 15.1999 20.9021 15.2999 20.9021 15.3999C20.9021 15.4999 20.8021 15.5999 20.8021 15.6999C20.7021 15.8999 20.7021 15.9999 20.7021 16.1999C20.7021 16.4999 20.7021 16.7999 20.8021 17.0999C20.9021 17.3999 21.0021 17.6999 21.2021 17.9999C21.3021 18.0999 21.4021 18.2999 21.5021 18.3999C21.6021 18.4999 21.6021 18.4999 21.7021 18.5999C21.8021 18.6999 21.9021 18.6999 21.9021 18.7999C22.0021 18.6999 22.0021 18.5999 22.0021 18.4999C22.0021 18.3999 22.1021 18.2999 22.1021 18.1999C22.2021 17.9999 22.2021 17.8999 22.2021 17.6999C22.2021 17.3999 22.2021 17.0999 22.1021 16.7999C22.0021 16.4999 21.9021 16.1999 21.7021 15.8999C21.6021 15.7999 21.5021 15.5999 21.4021 15.4999C21.3021 15.3999 21.3021 15.3999 21.2021 15.2999C21.2021 15.1999 21.1021 15.0999 21.0021 15.0999Z" fill="#0796D6"/>
<path d="M16.2018 25.4998C16.3018 25.5998 16.5018 25.6998 16.6018 25.7998C16.9018 25.8998 17.2018 25.9998 17.5018 26.0998C17.8018 26.0998 18.1018 26.0998 18.4018 26.0998C18.6018 26.0998 18.7018 25.9998 18.9018 25.9998C19.0018 25.9998 19.1018 25.8998 19.2018 25.8998C19.3018 25.8998 19.4018 25.7998 19.5018 25.6998C19.4018 25.5998 19.4018 25.4998 19.3018 25.4998C19.2018 25.3998 19.2018 25.3998 19.1018 25.2998C19.0018 25.1998 18.8018 25.0998 18.7018 24.9998C18.4018 24.8998 18.1018 24.7998 17.8018 24.6998C17.5018 24.6998 17.2018 24.6998 16.9018 24.6998C16.7018 24.6998 16.6018 24.7998 16.4018 24.7998C16.3018 24.7998 16.2018 24.8998 16.1018 24.8998C16.0018 24.8998 15.9018 24.9998 15.8018 25.0998C15.9018 25.1998 15.9018 25.2998 16.0018 25.2998C16.0018 25.3998 16.1018 25.4998 16.2018 25.4998Z" fill="#0796D6"/>
<path d="M22.6018 16.2998C22.6018 16.3998 22.7018 16.4998 22.7018 16.4998C22.8018 16.5998 22.8018 16.6998 22.9018 16.6998C23.0018 16.5998 23.1018 16.5998 23.1018 16.4998C23.2018 16.3998 23.2018 16.3998 23.3018 16.2998C23.4018 16.1998 23.5018 15.9998 23.5018 15.8998C23.6018 15.5998 23.7018 15.2998 23.7018 14.9998C23.7018 14.6998 23.7018 14.3998 23.6018 14.0998C23.6018 13.8998 23.5018 13.7998 23.4018 13.5998C23.4018 13.4998 23.3018 13.3998 23.3018 13.3998C23.2018 13.2998 23.2018 13.1998 23.1018 13.1998C23.0018 13.2998 22.9018 13.2998 22.9018 13.3998C22.8018 13.4998 22.8018 13.4998 22.7018 13.5998C22.6018 13.6998 22.5018 13.8998 22.5018 13.9998C22.4018 14.2998 22.3018 14.5998 22.3018 14.8998C22.3018 15.1998 22.3018 15.4998 22.4018 15.7998C22.5018 15.8998 22.6018 16.0998 22.6018 16.2998Z" fill="#0796D6"/>
<path d="M20.3018 13.1998C20.4018 13.2998 20.5018 13.4998 20.6018 13.5998C20.7018 13.6998 20.7018 13.6998 20.8018 13.7998C20.9018 13.8998 20.9018 13.8998 21.0018 13.9998C21.1018 13.8998 21.1018 13.7998 21.2018 13.6998C21.2018 13.5998 21.3018 13.4998 21.3018 13.3998C21.4018 13.1998 21.4018 13.0998 21.4018 12.8998C21.5018 12.5998 21.5018 12.2998 21.4018 11.9998C21.4018 11.6998 21.3018 11.3998 21.1018 11.0998C21.0018 10.9998 20.9018 10.7998 20.8018 10.6998C20.7018 10.5998 20.7018 10.5998 20.6018 10.4998C20.5018 10.3998 20.5018 10.3998 20.4018 10.2998C20.3018 10.3998 20.3018 10.4998 20.2018 10.5998C20.2018 10.6998 20.1018 10.7998 20.1018 10.8998C20.0018 11.0998 20.0018 11.1998 20.0018 11.3998C19.9018 11.6998 19.9018 11.9998 20.0018 12.2998C20.0018 12.5998 20.1018 12.8998 20.3018 13.1998Z" fill="#0796D6"/>
<path d="M12.6021 22.4998C12.8021 22.4998 12.9021 22.4998 13.1021 22.4998C13.2021 22.4998 13.3021 22.4998 13.4021 22.3998C13.5021 22.3998 13.6021 22.2998 13.7021 22.2998C13.7021 22.1998 13.6021 22.0998 13.6021 21.9998C13.5021 21.8998 13.5021 21.7998 13.4021 21.7998C13.3021 21.6998 13.2021 21.4998 13.0021 21.3998C12.7021 21.1998 12.5021 20.9998 12.2021 20.8998C11.9021 20.7998 11.6021 20.6998 11.3021 20.6998C11.1021 20.6998 11.0021 20.6998 10.8021 20.6998C10.7021 20.6998 10.6021 20.6998 10.5021 20.7998C10.4021 20.7998 10.3021 20.8998 10.2021 20.8998C10.2021 20.9998 10.3021 21.0998 10.3021 21.1998C10.4021 21.2998 10.4021 21.3998 10.5021 21.3998C10.6021 21.4998 10.7021 21.6998 10.9021 21.7998C11.2021 21.9998 11.4021 22.1998 11.7021 22.2998C11.9021 22.3998 12.2021 22.4998 12.6021 22.4998Z" fill="#0796D6"/>
<path d="M15.602 24.0998C15.902 24.1998 16.202 24.2998 16.502 24.2998C16.702 24.2998 16.802 24.2998 17.002 24.2998C17.102 24.2998 17.202 24.2998 17.302 24.1998C17.402 24.1998 17.502 24.0998 17.602 24.0998C17.602 23.9998 17.502 23.8998 17.402 23.7998C17.302 23.6998 17.302 23.5998 17.202 23.5998C17.102 23.4998 17.002 23.2998 16.802 23.1998C16.502 22.9998 16.302 22.7998 16.002 22.6998C15.702 22.5998 15.402 22.4998 15.102 22.4998C14.902 22.4998 14.802 22.4998 14.602 22.4998C14.502 22.4998 14.402 22.4998 14.302 22.5998C14.202 22.5998 14.102 22.6998 14.002 22.6998C14.002 22.7998 14.102 22.8998 14.202 22.9998C14.302 23.0998 14.302 23.1998 14.402 23.1998C14.502 23.2998 14.602 23.4998 14.802 23.5998C15.102 23.7998 15.402 23.9998 15.602 24.0998Z" fill="#0796D6"/>
<path d="M17.502 19.1998C17.502 19.2998 17.502 19.3998 17.502 19.4998C17.502 19.5998 17.502 19.6998 17.502 19.7998C17.502 19.9998 17.602 20.0998 17.602 20.2998C17.702 20.5998 17.902 20.8998 18.102 21.0998C18.302 21.2998 18.502 21.4998 18.802 21.6998C18.902 21.7998 19.102 21.8998 19.302 21.8998C19.402 21.8998 19.502 21.9998 19.602 21.9998C19.702 21.9998 19.802 21.9998 19.902 21.9998C19.902 21.8998 19.902 21.7998 19.902 21.6998C19.902 21.5998 19.902 21.4998 19.902 21.3998C19.902 21.1998 19.802 21.0998 19.802 20.8998C19.702 20.5998 19.502 20.2998 19.302 20.0998C19.102 19.8998 18.902 19.6998 18.602 19.4998C18.502 19.3998 18.302 19.2998 18.102 19.2998C18.002 19.2998 17.902 19.1998 17.802 19.1998C17.702 19.1998 17.702 19.1998 17.502 19.1998Z" fill="#0796D6"/>
<path d="M11.402 24.0998C11.502 24.1998 11.702 24.2998 11.802 24.3998C12.102 24.5998 12.402 24.6998 12.702 24.7998C13.002 24.8998 13.302 24.8998 13.602 24.8998C13.802 24.8998 13.902 24.8998 14.102 24.7998C14.202 24.7998 14.302 24.6998 14.402 24.6998C14.502 24.6998 14.602 24.5998 14.702 24.5998C14.602 24.4998 14.602 24.3998 14.502 24.3998C14.402 24.2998 14.402 24.2998 14.302 24.1998C14.202 24.0998 14.002 23.9998 13.902 23.8998C13.602 23.6998 13.302 23.5998 13.002 23.4998C12.702 23.3998 12.402 23.3998 12.102 23.3998C11.902 23.3998 11.802 23.3998 11.602 23.4998C11.502 23.4998 11.402 23.5998 11.302 23.5998C11.202 23.5998 11.102 23.6998 11.002 23.6998C11.102 23.7998 11.102 23.8998 11.202 23.8998C11.302 23.9998 11.402 24.0998 11.402 24.0998Z" fill="#0796D6"/>
<path d="M18.5021 15.2998C18.6021 15.5998 18.8021 15.7998 19.0021 16.0998C19.1021 16.1998 19.2021 16.2998 19.4021 16.3998C19.5021 16.4998 19.6021 16.4998 19.6021 16.4998C19.7021 16.4998 19.8021 16.5998 19.9021 16.5998C19.9021 16.4998 20.0021 16.3998 20.0021 16.2998C20.0021 16.1998 20.0021 16.0998 20.0021 15.9998C20.0021 15.7998 20.0021 15.6998 20.0021 15.4998C20.0021 15.1998 19.9021 14.8998 19.7021 14.5998C19.6021 14.2998 19.4021 14.0998 19.2021 13.7998C19.1021 13.6998 19.0021 13.5998 18.8021 13.4998C18.7021 13.3998 18.6021 13.3998 18.6021 13.3998C18.5021 13.3998 18.4021 13.2998 18.3021 13.2998C18.3021 13.3998 18.2021 13.4998 18.2021 13.5998C18.2021 13.6998 18.2021 13.7998 18.2021 13.8998C18.2021 14.0998 18.2021 14.1998 18.2021 14.3998C18.3021 14.6998 18.4021 14.9998 18.5021 15.2998Z" fill="#0796D6"/>
<path d="M58.3 18.9C57.8 20.5 57.6 22.4 57.6 24.6C57.6 25.1 57.6 25.6 57.6 26.2C57.6 26.8 57.7 27.3 57.7 27.9C57.9 29.2 58.2 30.3 58.7 31.4C59.2 32.5 60.1 33 61.3 33.1H61.4C61.4 33.1 61.4 33.1 61.5 33.1C62.8 33.1 63.7 32.6 64.3 31.6C64.8 30.6 65.2 29.5 65.3 28.2C65.4 27.7 65.4 27.2 65.4 26.7C65.4 26.2 65.4 25.8 65.4 25.3V23.9C65.4 23.5 65.4 23 65.4 22.5C65.4 22 65.3 21.4 65.2 20.9C65 19.9 64.7 18.9 64.1 18C63.6 17.1 62.7 16.6 61.5 16.5C59.8 16.6 58.7 17.3 58.3 18.9ZM66 17.8C66.7 19.5 67.1 21.7 67.1 24.6C67.1 25.1 67.1 25.7 67.1 26.4C67.1 27 67 27.7 67 28.3C66.8 29.8 66.3 31.2 65.6 32.5C64.8 33.8 63.5 34.4 61.5 34.4C59.6 34.4 58.3 33.7 57.6 32.4C56.9 31.1 56.5 29.6 56.3 28C56 27.4 56 26.8 56 26.2C56 25.6 56 25 56 24.5C56 24.4 56 24.3 56 24.2C56 24.1 56 24 56 23.9C56 23.8 56 23.7 56 23.5C56 23.4 56 23.2 56 23.1C56 22.7 56 22.2 56 21.7C56 21.2 56.1 20.7 56.2 20.2C56.4 19 56.9 17.8 57.7 16.8C58.5 15.8 59.8 15.2 61.6 15.1C63.8 15.3 65.3 16.2 66 17.8Z" fill="#0796D6"/>
<path d="M70.8 15.4H73L77 24.3L79.7 31.4V15.4H81.5V34.1H79.5L72.6 18V34.1H70.8V15.4Z" fill="#0796D6"/>
<path d="M94.2 15.4V17.2H87.5V23.3H93.5V25H87.5V32.3H94.2V34H85.5V15.4H94.2Z" fill="#0796D6"/>
<path d="M98 28.6C98.2 30.1 98.6 31.0999 99.2 31.7999C99.8 32.5 100.6 32.9 101.7 32.9C101.8 32.9 101.9 32.9 102 32.9C102.1 32.9 102.2 32.9 102.3 32.9C103 32.8 103.7 32.4 104.3 31.7999C104.9 31.1999 105.2 30.3 105.2 29.2V28.5C105.1 27.7 104.8 27.2 104.2 26.8C103.6 26.4 102.9 26 102.1 25.7C101.9 25.6 101.8 25.6 101.6 25.5C101.4 25.4 101.2 25.3 101.1 25.3C100 24.9 99.1 24.3 98.2 23.5C97.3 22.8 96.9 21.6 96.9 20C96.9 19.9 96.9 19.9 96.9 19.8C96.9 19.7 96.9 19.6 96.9 19.6V19.5C96.9 19.5 96.9 19.5 96.9 19.4C96.9 19.3 96.9 19.3 96.9 19.2C96.9 19.1 96.9 19.1 96.9 19C97 17.8 97.5 16.8 98.4 16.2C99.3 15.6 100.3 15.3 101.3 15.2H101.6C101.7 15.2 101.8 15.2 101.9 15.2C103 15.3 104.1 15.7 105 16.5C105.9 17.3 106.4 18.3 106.5 19.7H104.7C104.7 18.8 104.4 18.1 103.8 17.5C103.2 16.9 102.5 16.5 101.7 16.4C101.6 16.4 101.5 16.4 101.5 16.4C101.4 16.4 101.3 16.4 101.3 16.4C100.6 16.4 100 16.6 99.5 17.1C98.9 17.6 98.6 18.4 98.5 19.5V19.6V19.7C98.5 19.8 98.5 19.8 98.5 19.9V20C98.5 21.2 98.9 22.1 99.7 22.6C100.5 23.1 101.4 23.6 102.4 24C102.5 24 102.5 24.1 102.6 24.1C102.7 24.1 102.7 24.1 102.8 24.2C103.8 24.6 104.8 25.1 105.7 25.8C106.6 26.4 107 27.4 107.1 28.9V29C107.1 30.7 106.6 32.1 105.5 33C104.4 33.9 103.3 34.4 102 34.5H101.8H101.6C100.3 34.5 99.1 33.9999 98.1 33.0999C97 32.1999 96.5 30.8 96.5 28.9V28.8C96.5 28.8 96.5 28.8 96.5 28.7V28.6V28.5L98 28.6Z" fill="#0796D6"/>
<path d="M119.2 15.4V17.2H114.9V34.1H113.1V17.2H108.8V15.4H119.2Z" fill="#0796D6"/>
<path d="M124 18.9C123.5 20.5 123.3 22.4 123.3 24.6C123.3 25.1 123.3 25.6 123.3 26.2C123.3 26.8 123.4 27.3 123.4 27.9C123.6 29.2 123.9 30.3 124.4 31.4C124.9 32.5 125.8 33 127 33.1H127.1C127.1 33.1 127.1 33.1 127.2 33.1C128.5 33.1 129.4 32.6 130 31.6C130.5 30.6 130.9 29.5 131 28.2C131.1 27.7 131.1 27.2 131.1 26.7C131.1 26.2 131.1 25.8 131.1 25.3V23.9C131.1 23.5 131.1 23 131.1 22.5C131.1 22 131 21.4 130.9 20.9C130.7 19.9 130.4 18.9 129.8 18C129.3 17.1 128.4 16.6 127.2 16.5C125.6 16.6 124.5 17.3 124 18.9ZM131.8 17.8C132.5 19.5 132.9 21.7 132.9 24.6C132.9 25.1 132.9 25.7 132.9 26.4C132.9 27 132.8 27.7 132.8 28.3C132.6 29.8 132.1 31.2 131.4 32.5C130.6 33.8 129.3 34.4 127.3 34.4C125.4 34.4 124.1 33.7 123.4 32.4C122.7 31.1 122.3 29.6 122.1 28C122 27.4 122 26.7 122 26.1C122 25.5 122 24.9 122 24.4C122 24.3 122 24.2 122 24.1C122 24 122 23.9 122 23.8C122 23.7 122 23.6 122 23.4C122 23.3 122 23.1 122 23C122 22.6 122 22.1 122 21.6C122 21.1 122.1 20.6 122.2 20.1C122.4 18.9 122.9 17.7 123.7 16.7C124.5 15.7 125.8 15.1 127.6 15C129.6 15.3 131 16.2 131.8 17.8Z" fill="#0796D6"/>
<path d="M138.7 24.1H141.5C142.7 24.1 143.6 23.7 144.2 23C144.8 22.3 145.2 21.5 145.2 20.6V20.5V20.4V20.3V20.2C145.1 19.4 144.8 18.6 144.2 17.9C143.6 17.2 142.7 16.9 141.6 16.9H138.6V24.1H138.7ZM141.3 15.4C143.3 15.4 144.7 15.9 145.6 16.9C146.5 17.9 146.9 19 146.9 20.1V20.4C146.9 20.5 146.9 20.6 146.9 20.6C146.8 21.9 146.2 23 145.2 24.1C144.2 25.1 142.8 25.7 141.1 25.7H138.7V34.1H137V15.4H141.3Z" fill="#0796D6"/>
<path d="M55.9004 39.8H62.1004L67.0004 54.6L66.2004 39.8H72.2004V65.3001H65.9004L61.0004 51.1L61.8004 65.3001H55.9004V39.8Z" fill="#103977"/>
<path d="M85.3008 60.4001C86.0008 60.1001 86.4008 59.4001 86.4008 58.2001V46.5C86.4008 45.5 86.1008 44.9 85.5008 44.6C84.9008 44.3 84.2008 44.1 83.5008 44.1H83.0008H82.6008V60.9001C83.7008 60.8001 84.6008 60.7001 85.3008 60.4001ZM76.3008 39.8H83.4008C86.8008 39.8 89.1008 40.2001 90.5008 40.9001C91.9008 41.7001 92.6008 43.2 92.6008 45.6V59.1C92.6008 61 92.0008 62.5 90.8008 63.6C89.6008 64.7 87.6008 65.3001 84.8008 65.3001H76.4008V39.8H76.3008Z" fill="#103977"/>
<path d="M100.2 44.9001H95.4004V39.8H111V44.9001H106.5V65.4001H100.2V44.9001Z" fill="#103977"/>
</g>
<defs>
<clipPath id="clip0_1_114">
<rect width="147" height="66" fill="white"/>
</clipPath>
</defs>
</svg>
