<svg width="170" height="76" viewBox="0 0 170 76" fill="none" xmlns="http://www.w3.org/2000/svg">
<g clip-path="url(#clip0_1_293)">
<path d="M26.7143 0C11.9116 0 0 9.78788 0 28.5576C0 47.3273 26.7143 75.1939 26.7143 75.1939C26.7143 75.1939 53.4286 47.3273 53.4286 28.5576C53.4286 9.78788 41.4014 0 26.7143 0ZM26.7143 46.7515C15.381 46.7515 6.2449 37.6545 6.2449 26.4848C6.2449 15.3152 15.381 6.21818 26.7143 6.21818C38.0476 6.21818 47.1837 15.3152 47.1837 26.4848C47.1837 37.6545 38.0476 46.7515 26.7143 46.7515Z" fill="white"/>
<path d="M36.3133 27.0608C36.4289 26.9456 36.6602 26.8305 36.7759 26.7153C36.8915 26.6002 36.8915 26.6002 37.0072 26.485C37.1228 26.3699 37.1228 26.3699 37.2385 26.2547C37.1228 26.2547 37.0072 26.1396 36.8915 26.1396C36.7759 26.1396 36.6602 26.1396 36.5446 26.0244C36.3133 26.0244 36.1976 26.0244 35.9664 26.0244C35.6194 26.0244 35.2725 26.1396 34.9255 26.2547C34.5786 26.3699 34.2317 26.485 34.0004 26.7153C33.8847 26.8305 33.6534 26.9456 33.5378 27.0608C33.4221 27.1759 33.4221 27.1759 33.3065 27.2911C33.1908 27.4062 33.1908 27.4062 33.0752 27.5214C33.1908 27.5214 33.3065 27.6365 33.4221 27.6365C33.5378 27.6365 33.6534 27.6365 33.7691 27.7517C34.0004 27.7517 34.116 27.7517 34.3473 27.7517C34.6942 27.7517 35.0412 27.6365 35.3881 27.5214C35.7351 27.4062 35.9664 27.2911 36.3133 27.0608Z" fill="white"/>
<path d="M36.1969 25.3333C36.5439 25.2182 36.8908 25.103 37.2377 24.8727C37.5847 24.6424 37.816 24.4121 38.0473 24.1818C38.1629 24.0666 38.2785 23.8363 38.3942 23.7212C38.3942 23.606 38.5098 23.4909 38.5098 23.3757C38.5098 23.2606 38.6255 23.1454 38.6255 23.0303C38.5098 23.0303 38.3942 23.0303 38.2785 23.0303C38.1629 23.0303 38.0473 23.0303 37.9316 23.0303C37.7003 23.0303 37.5847 23.0303 37.3534 23.1454C37.0064 23.2606 36.6595 23.3757 36.3126 23.606C35.9656 23.8363 35.7343 24.0666 35.503 24.2969C35.3874 24.4121 35.2717 24.6424 35.1561 24.7575C35.1561 24.8727 35.0404 24.9878 35.0404 25.103C35.0404 25.2182 34.9248 25.3333 34.9248 25.4485C35.0405 25.4485 35.1561 25.4485 35.2717 25.4485C35.3874 25.4485 35.503 25.4485 35.6187 25.4485C35.85 25.4485 35.9656 25.4485 36.1969 25.3333Z" fill="white"/>
<path d="M31.9184 27.2909C32.2653 27.1758 32.6122 27.0606 32.8435 26.8303C33.1905 26.6 33.4218 26.3697 33.6531 26.0242C33.7687 25.9091 33.8844 25.6788 34 25.5636C34 25.4485 34.1156 25.3333 34.1156 25.2182C34.1156 25.103 34.2313 24.9879 34.2313 24.8727C34.1156 24.8727 34 24.8727 33.8843 24.8727C33.7687 24.8727 33.6531 24.8727 33.5374 24.8727C33.3061 24.8727 33.1905 24.9879 32.9592 24.9879C32.6122 25.103 32.2653 25.2182 32.034 25.4485C31.6871 25.6788 31.4558 25.9091 31.2245 26.2545C31.1088 26.3697 30.9932 26.6 30.8775 26.7152C30.8775 26.8303 30.7619 26.9455 30.7619 27.0606C30.7619 27.1758 30.6463 27.2909 30.6463 27.4061C30.7619 27.4061 30.8775 27.4061 30.9932 27.4061C31.1088 27.4061 31.2245 27.4061 31.3401 27.4061C31.5714 27.4061 31.6871 27.4061 31.9184 27.2909Z" fill="white"/>
<path d="M37.1224 28.5576C37.3537 28.5576 37.4694 28.6727 37.7007 28.6727C38.0476 28.6727 38.3946 28.6727 38.7415 28.5576C39.0884 28.4424 39.4354 28.3273 39.7823 28.097C39.898 27.9818 40.1293 27.8667 40.2449 27.7515C40.3605 27.6364 40.3605 27.6364 40.4762 27.5212C40.5918 27.4061 40.5918 27.2909 40.7075 27.2909C40.5918 27.1758 40.4762 27.1758 40.3605 27.1758C40.2449 27.1758 40.1293 27.0606 40.0136 27.0606C39.7823 27.0606 39.6667 26.9454 39.4354 26.9454C39.0884 26.9454 38.7415 26.9455 38.3946 27.0606C38.0476 27.1758 37.7007 27.2909 37.3537 27.5212C37.2381 27.6364 37.0068 27.7515 36.8912 27.8667C36.7755 27.9818 36.7755 27.9818 36.6599 28.097C36.5442 28.2121 36.5442 28.3273 36.4286 28.3273C36.5442 28.4424 36.6599 28.4424 36.7755 28.4424C36.8912 28.5576 37.0068 28.5576 37.1224 28.5576Z" fill="white"/>
<path d="M42.2113 25.7941C42.0957 25.9093 41.8644 26.0244 41.7487 26.1396C41.6331 26.2547 41.6331 26.2547 41.5174 26.3699C41.4018 26.485 41.4018 26.6002 41.2861 26.6002C41.4018 26.7153 41.5174 26.7153 41.6331 26.7153C41.7487 26.7153 41.8644 26.8305 41.98 26.8305C42.2113 26.9456 42.3269 26.9456 42.5582 26.9456C42.9052 26.9456 43.2521 26.9456 43.5991 26.8305C43.946 26.7153 44.2929 26.6002 44.6399 26.3699C44.7555 26.2547 44.9868 26.1396 45.1025 26.0244C45.2181 25.9093 45.2181 25.9093 45.3338 25.7941C45.4494 25.679 45.4494 25.679 45.565 25.5638C45.4494 25.4486 45.3337 25.4486 45.2181 25.4486C45.1025 25.4486 44.9868 25.3335 44.8712 25.3335C44.6399 25.3335 44.5242 25.3335 44.2929 25.3335C43.946 25.3335 43.5991 25.3335 43.2521 25.4486C42.7895 25.4486 42.5582 25.5638 42.2113 25.7941Z" fill="white"/>
<path d="M37.701 20.6123C37.4697 20.8426 37.2384 21.0729 37.0071 21.4184C36.8914 21.5335 36.7758 21.7638 36.7758 21.9941C36.7758 22.1093 36.6602 22.2244 36.6602 22.3396C36.6602 22.4547 36.6602 22.5699 36.6602 22.685C36.7758 22.685 36.8914 22.685 37.0071 22.685C37.1227 22.685 37.2384 22.685 37.354 22.685C37.5853 22.685 37.701 22.5699 37.9323 22.5699C38.2792 22.4547 38.6261 22.2244 38.8574 21.9941C39.0887 21.7638 39.32 21.5335 39.5513 21.1881C39.667 21.0729 39.7826 20.8426 39.7826 20.6123C39.7826 20.4971 39.8983 20.382 39.8983 20.2668C39.8983 20.1517 39.8983 20.0365 39.8983 19.9214C39.7826 19.9214 39.667 19.9214 39.5513 19.9214C39.4357 19.9214 39.32 19.9214 39.2044 19.9214C38.9731 19.9214 38.8574 20.0365 38.6261 20.1517C38.2792 20.1517 38.0479 20.382 37.701 20.6123Z" fill="white"/>
<path d="M41.4009 24.7577C41.5165 24.6426 41.5165 24.6426 41.6322 24.5274C41.7478 24.4123 41.7478 24.2971 41.7478 24.182C41.6322 24.182 41.5165 24.0668 41.4009 24.0668C41.2852 24.0668 41.1696 24.0668 41.0539 23.9517C40.8226 23.9517 40.707 23.9517 40.4757 23.9517C40.1288 23.9517 39.7818 24.0668 39.4349 24.182C39.088 24.2971 38.741 24.5274 38.5097 24.7577C38.3941 24.8729 38.2784 24.988 38.0471 25.2183C37.9315 25.3335 37.9315 25.3335 37.8158 25.4486C37.7002 25.5638 37.7002 25.6789 37.7002 25.7941C37.8158 25.7941 37.9315 25.9092 38.0471 25.9092C38.1628 25.9092 38.2784 25.9092 38.3941 26.0244C38.6254 26.0244 38.741 26.0244 38.9723 26.0244C39.3192 26.0244 39.6662 25.9092 40.0131 25.7941C40.3601 25.6789 40.707 25.4486 40.9383 25.2183C41.0539 24.988 41.2852 24.8729 41.4009 24.7577Z" fill="white"/>
<path d="M35.0408 21.303C34.6939 21.5333 34.4626 21.7636 34.2313 21.9939C34 22.2242 33.7687 22.5697 33.6531 22.9152C33.5374 23.0303 33.5374 23.2606 33.4218 23.4909C33.4218 23.6061 33.4218 23.7212 33.4218 23.8364C33.4218 23.9515 33.4218 24.0667 33.4218 24.1818C33.5374 24.1818 33.6531 24.1818 33.7687 24.1818C33.8844 24.1818 34 24.1818 34.1156 24.0667C34.3469 23.9515 34.4626 23.9515 34.6939 23.8364C35.0408 23.6061 35.2721 23.3758 35.5034 23.1455C35.7347 22.9152 35.966 22.5697 36.0816 22.2242C36.1973 21.9939 36.1973 21.8788 36.3129 21.6485C36.3129 21.5333 36.3129 21.4182 36.3129 21.303C36.3129 21.1879 36.3129 21.0727 36.3129 20.9576C36.1973 20.9576 36.0816 20.9576 35.966 20.9576C35.8503 20.9576 35.7347 20.9576 35.619 21.0727C35.3878 21.1879 35.2721 21.1879 35.0408 21.303Z" fill="white"/>
<path d="M36.6594 19.921C36.7751 19.921 36.8907 19.8059 37.0064 19.8059C37.2377 19.6907 37.3533 19.6907 37.5846 19.5756C37.9315 19.3453 38.1628 19.115 38.3941 18.8847C38.6254 18.6544 38.8567 18.3089 38.9724 17.9634C39.088 17.7331 39.088 17.618 39.088 17.3877C39.088 17.2725 39.088 17.1574 39.088 17.0422C39.088 16.9271 39.088 16.8119 39.088 16.6968C38.9724 16.6968 38.8567 16.6968 38.7411 16.8119C38.6254 16.8119 38.5098 16.9271 38.3941 16.9271C38.1628 17.0422 38.0472 17.0422 37.8159 17.1574C37.469 17.3877 37.2377 17.618 37.0064 17.8483C36.7751 18.0786 36.5438 18.424 36.4281 18.7695C36.3125 18.9998 36.3125 19.115 36.3125 19.3453C36.3125 19.4604 36.3125 19.5756 36.3125 19.6907C36.3125 19.8059 36.3125 19.921 36.3125 20.0362C36.4281 19.921 36.5438 19.921 36.6594 19.921Z" fill="white"/>
<path d="M39.6667 22.5697C39.6667 22.6848 39.551 22.8 39.551 22.9152C39.6667 22.9152 39.7823 22.9152 39.898 23.0303C40.0136 23.0303 40.1293 23.0303 40.2449 23.0303C40.4762 23.0303 40.5918 23.0303 40.8231 22.9152C41.1701 22.8 41.517 22.6848 41.864 22.5697C42.2109 22.3394 42.4422 22.1091 42.6735 21.8788C42.7891 21.7636 42.9048 21.5333 43.0204 21.4182C43.0204 21.303 43.1361 21.1879 43.1361 21.1879C43.1361 21.0727 43.2517 20.9576 43.2517 20.8424C43.1361 20.8424 43.0204 20.8424 42.9048 20.7273C42.7891 20.7273 42.6735 20.7273 42.5578 20.7273C42.3265 20.7273 42.2109 20.7273 41.9796 20.8424C41.6327 20.9576 41.2857 21.0727 40.9388 21.1879C40.5918 21.4182 40.3605 21.6485 40.1293 21.8788C40.0136 21.9939 39.898 22.2242 39.7823 22.3394C39.6667 22.4545 39.6667 22.4545 39.6667 22.5697Z" fill="white"/>
<path d="M14.4561 17.2729C14.4561 17.5032 14.5717 17.6184 14.5717 17.8487C14.6873 18.1942 14.9186 18.5396 15.1499 18.7699C15.3812 19.0002 15.6125 19.3457 15.9595 19.4608C16.0751 19.576 16.3064 19.6911 16.5377 19.6911C16.6533 19.6911 16.769 19.8063 16.8846 19.8063C17.0003 19.8063 17.1159 19.8063 17.2316 19.9214C17.2316 19.8063 17.2316 19.6911 17.2316 19.576C17.2316 19.4608 17.2316 19.3457 17.2316 19.2305C17.2316 19.0002 17.1159 18.8851 17.1159 18.6548C17.0003 18.3093 16.769 17.9638 16.5377 17.7335C16.3064 17.5032 16.0751 17.1578 15.7282 17.0426C15.6125 16.9275 15.3812 16.8123 15.1499 16.8123C15.0343 16.8123 14.9186 16.6972 14.803 16.6972C14.6873 16.6972 14.5717 16.6972 14.4561 16.582C14.4561 16.6972 14.4561 16.8123 14.4561 16.9275C14.4561 17.0426 14.4561 17.1578 14.4561 17.2729Z" fill="white"/>
<path d="M22.7819 27.0604C22.7819 26.9453 22.6662 26.8301 22.6662 26.715C22.5506 26.4847 22.4349 26.3695 22.3193 26.2544C22.088 25.9089 21.8567 25.6786 21.5098 25.4483C21.1628 25.218 20.9315 25.1029 20.5846 24.9877C20.3533 24.9877 20.2377 24.8726 20.0064 24.8726C19.8907 24.8726 19.7751 24.8726 19.6594 24.8726C19.5438 24.8726 19.4281 24.8726 19.3125 24.8726C19.3125 24.9877 19.3125 25.1029 19.4281 25.218C19.4281 25.3332 19.5438 25.4483 19.5438 25.5635C19.6594 25.7938 19.7751 25.9089 19.8907 26.0241C20.122 26.3695 20.3533 26.5998 20.7003 26.8301C21.0472 27.0604 21.2785 27.1756 21.6254 27.2907C21.8567 27.2907 21.9724 27.4059 22.2037 27.4059C22.3193 27.4059 22.4349 27.4059 22.5506 27.4059C22.6662 27.4059 22.7819 27.4059 22.8975 27.4059C22.7819 27.2907 22.7819 27.1756 22.7819 27.0604Z" fill="white"/>
<path d="M15.4966 23.0303C15.3809 23.0303 15.2653 23.0303 15.1497 23.0303C15.034 23.0303 14.9184 23.0303 14.8027 23.0303C14.8027 23.1455 14.9184 23.2606 14.9184 23.3758C14.9184 23.4909 15.034 23.6061 15.034 23.7212C15.1497 23.9515 15.2653 24.0667 15.381 24.1818C15.6122 24.5273 15.8435 24.7576 16.1905 24.8727C16.5374 25.103 16.7687 25.2182 17.2313 25.3333C17.4626 25.3333 17.5782 25.4485 17.8095 25.4485C17.9252 25.4485 18.0408 25.4485 18.1565 25.4485C18.2721 25.4485 18.3878 25.4485 18.5034 25.4485C18.5034 25.3333 18.3878 25.2182 18.3878 25.103C18.3878 24.9879 18.2721 24.8727 18.2721 24.7576C18.1565 24.5273 18.0408 24.4121 17.9252 24.297C17.6939 23.9515 17.4626 23.7212 17.1156 23.6061C16.7687 23.3758 16.4218 23.2606 16.0748 23.1455C15.9592 23.1455 15.7279 23.0303 15.4966 23.0303Z" fill="white"/>
<path d="M17.9252 19.2303C18.0408 19.5758 18.1565 19.9212 18.3878 20.1515C18.619 20.497 18.8503 20.7273 19.1973 20.9576C19.3129 21.0727 19.5442 21.1879 19.6599 21.303C19.7755 21.303 19.8912 21.4182 20.0068 21.4182C20.1224 21.4182 20.2381 21.5333 20.3537 21.5333C20.3537 21.4182 20.3537 21.303 20.3537 21.1879C20.3537 21.0727 20.3537 20.9576 20.3537 20.8424C20.3537 20.6121 20.2381 20.497 20.2381 20.2667C20.1225 19.9212 20.0068 19.5758 19.7755 19.3455C19.5442 19 19.3129 18.7697 18.966 18.5394C18.8503 18.4242 18.619 18.3091 18.5034 18.1939C18.3878 18.1939 18.2721 18.0788 18.1565 18.0788C18.0408 18.0788 17.9252 17.9636 17.8095 17.9636C17.8095 18.0788 17.8095 18.1939 17.8095 18.3091C17.8095 18.4242 17.8095 18.5394 17.8095 18.6545C17.8095 18.8849 17.9252 19 17.9252 19.2303Z" fill="white"/>
<path d="M27.0612 20.497C27.0612 20.3818 26.9456 20.2667 26.8299 20.2667C26.7143 20.1515 26.7143 20.0364 26.5986 20.0364C26.483 20.1515 26.483 20.2667 26.3673 20.2667C26.2517 20.3818 26.2517 20.497 26.2517 20.497C26.136 20.7273 26.0204 20.8424 26.0204 21.0727C25.9048 21.4182 25.7891 21.7636 25.7891 22.1091C25.7891 22.4545 25.7891 22.8 26.0204 23.1455C26.136 23.3758 26.136 23.4909 26.2517 23.7212C26.2517 23.8364 26.3673 23.9515 26.3673 23.9515C26.5986 24.0667 26.5986 24.1818 26.7143 24.1818C26.8299 24.0667 26.8299 23.9515 26.9456 23.9515C27.0612 23.8364 27.0612 23.7212 27.1769 23.7212C27.2925 23.4909 27.4082 23.3758 27.4082 23.1455C27.5238 22.8 27.6394 22.4545 27.6394 22.1091C27.6394 21.7636 27.6395 21.4182 27.4082 21.0727C27.2925 20.8424 27.1769 20.6121 27.0612 20.497Z" fill="white"/>
<path d="M17.2313 21.6485C17.2313 21.8788 17.3469 21.9939 17.4626 22.2242C17.5782 22.5697 17.8095 22.9152 18.0408 23.1455C18.2721 23.3758 18.5034 23.6061 18.8503 23.8364C18.966 23.9515 19.1973 24.0667 19.4286 24.0667C19.5442 24.0667 19.6599 24.1818 19.7755 24.1818C19.8912 24.1818 20.0068 24.1818 20.1224 24.1818C20.1224 24.0667 20.1224 23.9515 20.1224 23.8364C20.1224 23.7212 20.1224 23.6061 20.1224 23.4909C20.1224 23.2606 20.0068 23.1455 19.8912 22.9152C19.7755 22.5697 19.5442 22.2242 19.3129 21.9939C19.0816 21.7636 18.8503 21.5333 18.5034 21.303C18.3878 21.1879 18.1565 21.0727 17.9252 21.0727C17.8095 21.0727 17.6939 20.9576 17.5782 20.9576C17.4626 20.9576 17.3469 20.9576 17.2313 20.9576C17.2313 21.0727 17.2313 21.1879 17.2313 21.303C17.2313 21.4182 17.2313 21.5333 17.2313 21.6485Z" fill="white"/>
<path d="M13.7619 20.3818C13.8775 20.6121 13.8775 20.7273 13.9932 20.9576C14.2245 21.303 14.4558 21.5333 14.6871 21.7636C14.9184 21.9939 15.2653 22.2242 15.6122 22.3394C15.8435 22.4545 15.9592 22.4545 16.1905 22.4545C16.3061 22.4545 16.4218 22.4545 16.5374 22.4545C16.6531 22.4545 16.7687 22.4545 16.8844 22.4545C16.8844 22.3394 16.8844 22.2242 16.8844 22.1091C16.8844 21.9939 16.8844 21.8788 16.7687 21.7636C16.6531 21.5333 16.6531 21.4182 16.5374 21.1879C16.3061 20.8424 16.0748 20.6121 15.8435 20.3818C15.6122 20.1515 15.2653 19.9212 14.9184 19.8061C14.6871 19.6909 14.5714 19.6909 14.3401 19.5758C14.2245 19.5758 14.1088 19.5758 13.9932 19.5758C13.8775 19.5758 13.7619 19.5758 13.6463 19.5758C13.6463 19.6909 13.6463 19.8061 13.6463 19.9212C13.6463 20.2667 13.6463 20.3818 13.7619 20.3818Z" fill="white"/>
<path d="M26.7143 32.3576C25.4422 30.7455 18.5034 32.3576 7.63266 27.0606C13.6463 32.1273 19.6599 32.703 23.0136 33.2788C24.7483 33.6242 24.4014 40.5333 23.4762 40.9939H26.5986H29.7211C28.7959 40.5333 28.449 33.5091 30.1837 33.2788C33.6531 32.703 39.551 32.0121 45.5646 27.0606C34.9252 32.3576 27.9864 30.7455 26.7143 32.3576Z" fill="white"/>
<path d="M8.44249 26.2544C8.55814 26.3696 8.78943 26.4847 8.90507 26.5999C9.25201 26.8302 9.59895 26.9453 9.94589 27.0605C10.2928 27.1756 10.6398 27.1756 10.9867 27.1756C11.218 27.1756 11.3336 27.0605 11.5649 27.0605C11.6806 27.0605 11.7962 26.9453 11.9119 26.9453C12.0275 26.9453 12.1432 26.8302 12.2588 26.8302C12.1432 26.715 12.1432 26.5999 12.0275 26.5999C11.9119 26.4847 11.9119 26.4847 11.7962 26.3696C11.6806 26.2544 11.4493 26.1393 11.3336 26.0241C10.9867 25.7938 10.6398 25.6787 10.2928 25.6787C9.83024 25.3332 9.48331 25.2181 9.13637 25.3332C8.90507 25.3332 8.78943 25.4484 8.55814 25.4484C8.44249 25.4484 8.32684 25.5635 8.2112 25.5635C8.09555 25.5635 7.9799 25.6787 7.86426 25.6787C7.9799 25.7938 7.9799 25.909 8.09555 25.909C8.2112 26.0241 8.32684 26.1393 8.44249 26.2544Z" fill="white"/>
<path d="M10.4082 21.4182C10.5238 21.6485 10.6394 21.7636 10.7551 21.8788C10.9864 22.1091 11.3333 22.3394 11.5646 22.5697C11.9116 22.8 12.2585 22.9152 12.6054 22.9152C12.8367 22.9152 12.9524 23.0303 13.1837 23.0303C13.2993 23.0303 13.415 23.0303 13.5306 23.0303C13.6463 23.0303 13.7619 23.0303 13.8775 22.9152C13.8775 22.8 13.7619 22.6848 13.7619 22.5697C13.7619 22.4545 13.6463 22.3394 13.6463 22.3394C13.5306 22.1091 13.415 21.9939 13.2993 21.8788C13.068 21.6485 12.7211 21.4182 12.4898 21.1879C12.1429 20.9576 11.7959 20.8424 11.449 20.8424C11.2177 20.8424 11.102 20.8424 10.8707 20.7273C10.7551 20.7273 10.6394 20.7273 10.5238 20.7273C10.4082 20.7273 10.2925 20.7273 10.1769 20.7273C10.1769 20.8424 10.2925 20.9576 10.2925 21.0727C10.2925 21.1879 10.4082 21.303 10.4082 21.4182Z" fill="white"/>
<path d="M18.3874 16.3514C18.6187 16.6968 18.85 16.9271 19.0813 17.1574C19.1969 17.2726 19.4282 17.3877 19.5439 17.5029C19.6595 17.5029 19.7751 17.618 19.7751 17.618C19.8908 17.618 20.0064 17.7332 20.1221 17.7332C20.1221 17.618 20.1221 17.5029 20.2377 17.3877C20.2377 17.2726 20.2377 17.1574 20.2377 17.0423C20.2377 16.812 20.2377 16.6968 20.1221 16.4665C20.0064 16.1211 19.8908 15.7756 19.7751 15.4302C19.5439 15.0847 19.3126 14.8544 19.0813 14.6241C18.9656 14.5089 18.7343 14.3938 18.6187 14.2786C18.503 14.2786 18.3874 14.1635 18.3874 14.1635C18.2717 14.1635 18.1561 14.0483 18.0405 14.0483C18.0405 14.1635 18.0405 14.2786 17.9248 14.3938C17.9248 14.5089 17.9248 14.6241 17.9248 14.7392C17.9248 14.9696 17.9248 15.0847 18.0405 15.315C18.0405 15.6605 18.1561 16.0059 18.3874 16.3514Z" fill="white"/>
<path d="M22.3197 19.5758C22.2041 19.4606 22.0884 19.3455 21.8571 19.2303C21.7415 19.1152 21.6259 19.1152 21.6259 19C21.5102 19 21.3946 18.8848 21.2789 18.8848C21.2789 19 21.1633 19.1152 21.1633 19.2303C21.1633 19.3455 21.1633 19.4606 21.1633 19.5758C21.1633 19.8061 21.1633 19.9212 21.1633 20.1515C21.1633 20.497 21.2789 20.8424 21.3946 21.1879C21.5102 21.5333 21.7415 21.7636 21.9728 22.1091C22.0884 22.2242 22.2041 22.3394 22.4354 22.4545C22.551 22.5697 22.6667 22.5697 22.6667 22.6849C22.7823 22.6849 22.898 22.8 23.0136 22.8C23.0136 22.6848 23.1293 22.5697 23.1293 22.4545C23.1293 22.3394 23.1293 22.2242 23.1293 22.1091C23.1293 21.8788 23.1293 21.7636 23.1293 21.5333C23.1293 21.1879 23.0136 20.8424 22.898 20.497C22.7823 20.1515 22.6667 19.9212 22.3197 19.5758Z" fill="white"/>
<path d="M24.2854 17.3877C24.1698 17.5028 24.1698 17.618 24.1698 17.7331C24.1698 17.8483 24.0541 17.9635 24.0541 18.0786C23.9385 18.3089 23.9385 18.4241 23.9385 18.6544C23.9385 18.9998 23.9385 19.3453 24.0541 19.6907C24.1698 20.0362 24.2854 20.3816 24.5167 20.7271C24.6324 20.8422 24.748 21.0725 24.8636 21.1877C24.9793 21.3028 24.9793 21.3028 25.0949 21.418C25.2106 21.5331 25.3262 21.5331 25.3262 21.6483C25.4419 21.5331 25.4419 21.418 25.4419 21.3028C25.4419 21.1877 25.5575 21.0725 25.5575 20.9574C25.6732 20.7271 25.6732 20.6119 25.6732 20.3816C25.6732 20.0362 25.6732 19.6907 25.5575 19.3453C25.4419 18.9998 25.3262 18.6544 25.0949 18.3089C24.9793 18.1938 24.8636 17.9635 24.748 17.8483C24.6324 17.7331 24.6324 17.7331 24.5167 17.618C24.5167 17.5028 24.4011 17.3877 24.2854 17.3877Z" fill="white"/>
<path d="M18.735 29.3636C18.8507 29.4787 19.082 29.5939 19.1976 29.709C19.5446 29.8242 19.8915 29.9394 20.2384 30.0545C20.5854 30.0545 20.9323 30.0545 21.2793 30.0545C21.5106 30.0545 21.6262 29.9394 21.8575 29.9394C21.9731 29.9394 22.0888 29.8242 22.2044 29.8242C22.3201 29.8242 22.4357 29.709 22.5514 29.5939C22.4357 29.4787 22.4357 29.3636 22.3201 29.3636C22.2044 29.2484 22.2044 29.2484 22.0888 29.1333C21.9731 29.0181 21.7418 28.903 21.6262 28.7878C21.2793 28.6727 20.9323 28.5575 20.5854 28.4424C20.2384 28.4424 19.8915 28.4424 19.5446 28.4424C19.3133 28.4424 19.1976 28.5575 18.9663 28.5575C18.8507 28.5575 18.735 28.6727 18.6194 28.6727C18.5038 28.6727 18.3881 28.7878 18.2725 28.903C18.3881 29.0181 18.3881 29.1333 18.5038 29.1333C18.5038 29.2484 18.6194 29.3636 18.735 29.3636Z" fill="white"/>
<path d="M26.136 18.7697C26.136 18.8848 26.2517 19 26.2517 19C26.3673 19.1151 26.3673 19.2303 26.483 19.2303C26.5986 19.1151 26.7143 19.1151 26.7143 19C26.8299 18.8848 26.8299 18.8848 26.9456 18.7697C27.0612 18.6545 27.1769 18.4242 27.1769 18.3091C27.2925 17.9636 27.4082 17.6182 27.4082 17.2727C27.4082 16.9273 27.4082 16.5818 27.2925 16.2364C27.2925 16.0061 27.1769 15.8909 27.0612 15.6606C27.0612 15.5455 26.9456 15.4303 26.9456 15.4303C26.8299 15.3151 26.8299 15.2 26.7143 15.2C26.5986 15.3151 26.483 15.3151 26.483 15.4303C26.3673 15.5455 26.3673 15.5455 26.2517 15.6606C26.136 15.7758 26.0204 16.0061 26.0204 16.1212C25.9048 16.4667 25.7891 16.8121 25.7891 17.1576C25.7891 17.503 25.7891 17.8485 25.9048 18.1939C26.0204 18.3091 26.136 18.5394 26.136 18.7697Z" fill="white"/>
<path d="M23.4766 15.2002C23.5923 15.3154 23.7079 15.5457 23.8236 15.6608C23.9392 15.776 23.9392 15.776 24.0549 15.8911C24.1705 16.0063 24.1705 16.0063 24.2862 16.1214C24.4018 16.0063 24.4018 15.8911 24.5175 15.776C24.5175 15.6608 24.6331 15.5457 24.6331 15.4305C24.7488 15.2002 24.7488 15.0851 24.7488 14.8548C24.8644 14.5093 24.8644 14.1639 24.7488 13.8184C24.7488 13.473 24.6331 13.1275 24.4018 12.7821C24.2862 12.6669 24.1705 12.4366 24.0549 12.3214C23.9392 12.2063 23.9392 12.2063 23.8236 12.0911C23.7079 11.976 23.7079 11.976 23.5923 11.8608C23.4766 11.976 23.4766 12.0911 23.361 12.2063C23.361 12.3214 23.2454 12.4366 23.2454 12.5517C23.1297 12.7821 23.1297 12.8972 23.1297 13.1275C23.0141 13.473 23.0141 13.8184 23.1297 14.1639C23.1297 14.5093 23.2453 14.8548 23.4766 15.2002Z" fill="white"/>
<path d="M14.5714 25.9091C14.8027 25.9091 14.9184 25.9091 15.1497 25.9091C15.2653 25.9091 15.3809 25.9091 15.4966 25.7939C15.6122 25.7939 15.7279 25.6788 15.8435 25.6788C15.8435 25.5636 15.7279 25.4485 15.7279 25.3333C15.6122 25.2182 15.6122 25.103 15.4966 25.103C15.3809 24.9879 15.2653 24.7576 15.034 24.6424C14.6871 24.4121 14.4558 24.1818 14.1088 24.0667C13.7619 23.9515 13.415 23.8364 13.068 23.8364C12.8367 23.8364 12.7211 23.8364 12.4898 23.8364C12.3741 23.8364 12.2585 23.8364 12.1429 23.9515C12.0272 23.9515 11.9116 24.0667 11.7959 24.0667C11.7959 24.1818 11.9116 24.297 11.9116 24.4121C12.0272 24.5273 12.0272 24.6424 12.1429 24.6424C12.2585 24.7576 12.3741 24.9879 12.6054 25.103C12.9524 25.3333 13.1837 25.5636 13.5306 25.6788C13.7619 25.7939 14.1088 25.9091 14.5714 25.9091Z" fill="white"/>
<path d="M18.0408 27.7515C18.3878 27.8667 18.7347 27.9818 19.0816 27.9818C19.3129 27.9818 19.4286 27.9818 19.6599 27.9818C19.7755 27.9818 19.8912 27.9818 20.0068 27.8667C20.1224 27.8667 20.2381 27.7515 20.3537 27.7515C20.3537 27.6364 20.2381 27.5212 20.1224 27.4061C20.0068 27.2909 20.0068 27.1758 19.8912 27.1758C19.7755 27.0606 19.6599 26.8303 19.4286 26.7151C19.0816 26.4848 18.8503 26.2545 18.5034 26.1394C18.1565 26.0242 17.8095 25.9091 17.4626 25.9091C17.2313 25.9091 17.1156 25.9091 16.8844 25.9091C16.7687 25.9091 16.6531 25.9091 16.5374 26.0242C16.4218 26.0242 16.3061 26.1394 16.1905 26.1394C16.1905 26.2545 16.3061 26.3697 16.4218 26.4848C16.5374 26.6 16.5374 26.7151 16.6531 26.7151C16.7687 26.8303 16.8844 27.0606 17.1156 27.1758C17.4626 27.4061 17.8095 27.6364 18.0408 27.7515Z" fill="white"/>
<path d="M20.2381 22.1091C20.2381 22.2243 20.2381 22.3394 20.2381 22.4546C20.2381 22.5697 20.2381 22.6849 20.2381 22.8C20.2381 23.0303 20.3537 23.1455 20.3537 23.3758C20.4694 23.7212 20.7007 24.0667 20.932 24.297C21.1633 24.5273 21.3946 24.7576 21.7415 24.9879C21.8571 25.103 22.0884 25.2182 22.3197 25.2182C22.4354 25.2182 22.551 25.3333 22.6667 25.3333C22.7823 25.3333 22.898 25.3333 23.0136 25.3333C23.0136 25.2182 23.0136 25.103 23.0136 24.9879C23.0136 24.8727 23.0136 24.7576 23.0136 24.6424C23.0136 24.4121 22.898 24.297 22.898 24.0667C22.7823 23.7212 22.551 23.3758 22.3197 23.1455C22.0884 22.9152 21.8571 22.6849 21.5102 22.4546C21.3946 22.3394 21.1633 22.2243 20.932 22.2243C20.8163 22.2243 20.7007 22.1091 20.585 22.1091C20.4694 22.1091 20.4694 22.1091 20.2381 22.1091Z" fill="white"/>
<path d="M13.1833 27.7514C13.2989 27.8665 13.5302 27.9817 13.6459 28.0968C13.9928 28.3271 14.3398 28.4423 14.6867 28.5574C15.0336 28.6726 15.3806 28.6726 15.7275 28.6726C15.9588 28.6726 16.0744 28.6726 16.3057 28.5574C16.4214 28.5574 16.537 28.4423 16.6527 28.4423C16.7683 28.4423 16.884 28.3271 16.9996 28.3271C16.884 28.212 16.884 28.0968 16.7683 28.0968C16.6527 27.9817 16.6527 27.9817 16.537 27.8665C16.4214 27.7514 16.1901 27.6362 16.0744 27.5211C15.7275 27.2908 15.3806 27.1756 15.0336 27.0605C14.6867 26.9453 14.3398 26.9453 13.9928 26.9453C13.7615 26.9453 13.6459 26.9453 13.4146 27.0605C13.2989 27.0605 13.1833 27.1756 13.0676 27.1756C12.952 27.1756 12.8363 27.2908 12.7207 27.2908C12.8363 27.4059 12.8363 27.5211 12.952 27.5211C13.0676 27.6362 13.1833 27.7514 13.1833 27.7514Z" fill="white"/>
<path d="M21.3946 17.6182C21.5102 17.9636 21.7415 18.1939 21.9728 18.5394C22.0884 18.6545 22.2041 18.7697 22.4354 18.8849C22.551 19 22.6667 19 22.6667 19C22.7823 19 22.898 19.1152 23.0136 19.1152C23.0136 19 23.1293 18.8849 23.1293 18.7697C23.1293 18.6545 23.1293 18.5394 23.1293 18.4242C23.1293 18.1939 23.1293 18.0788 23.1293 17.8485C23.1293 17.503 23.0136 17.1576 22.7823 16.8121C22.6667 16.4667 22.4354 16.2364 22.2041 15.8909C22.0884 15.7758 21.9728 15.6606 21.7415 15.5455C21.6259 15.4303 21.5102 15.4303 21.5102 15.4303C21.3946 15.4303 21.2789 15.3152 21.1633 15.3152C21.1633 15.4303 21.0476 15.5455 21.0476 15.6606C21.0476 15.7758 21.0476 15.8909 21.0476 16.0061C21.0476 16.2364 21.0476 16.3515 21.0476 16.5818C21.1633 16.9273 21.2789 17.2727 21.3946 17.6182Z" fill="white"/>
<path d="M67.4218 21.7636C66.8435 23.6061 66.6122 25.7939 66.6122 28.3273C66.6122 28.903 66.6122 29.4788 66.6122 30.1697C66.6122 30.8606 66.7279 31.4364 66.7279 32.1273C66.9592 33.6242 67.3061 34.8909 67.8844 36.1576C68.4626 37.4242 69.5034 38 70.8912 38.1151H71.0068C71.0068 38.1151 71.0068 38.1151 71.1224 38.1151C72.6258 38.1151 73.6667 37.5394 74.3605 36.3879C74.9388 35.2364 75.4014 33.9697 75.517 32.4727C75.6327 31.897 75.6327 31.3212 75.6327 30.7455C75.6327 30.1697 75.6327 29.7091 75.6327 29.1333V27.5212C75.6327 27.0606 75.6327 26.4848 75.6327 25.9091C75.6327 25.3333 75.517 24.6424 75.4014 24.0667C75.1701 22.9152 74.8231 21.7636 74.1292 20.7273C73.551 19.6909 72.5102 19.1152 71.1224 19C69.1565 19.1152 67.8843 19.9212 67.4218 21.7636ZM76.3265 20.497C77.1361 22.4545 77.5986 24.9879 77.5986 28.3273C77.5986 28.903 77.5986 29.5939 77.5986 30.4C77.5986 31.0909 77.483 31.897 77.483 32.5879C77.2517 34.3151 76.6735 35.9273 75.8639 37.4242C74.9388 38.9212 73.4354 39.6121 71.1224 39.6121C68.9252 39.6121 67.4218 38.8061 66.6122 37.3091C65.8027 35.8121 65.3401 34.0848 65.1088 32.2424C64.7619 31.5515 64.7619 30.8606 64.7619 30.1697C64.7619 29.4788 64.7619 28.7879 64.7619 28.2121C64.7619 28.097 64.7619 27.9818 64.7619 27.8667C64.7619 27.7515 64.7619 27.6364 64.7619 27.5212C64.7619 27.4061 64.7619 27.2909 64.7619 27.0606C64.7619 26.9455 64.7619 26.7152 64.7619 26.6C64.7619 26.1394 64.7619 25.5636 64.7619 24.9879C64.7619 24.4121 64.8775 23.8364 64.9932 23.2606C65.2245 21.8788 65.8027 20.497 66.7279 19.3455C67.6531 18.1939 69.1565 17.503 71.2381 17.3879C73.7823 17.6182 75.517 18.6545 76.3265 20.497Z" fill="white"/>
<path d="M81.8771 17.7332H84.4214L89.0472 27.9817L92.1696 36.1574V17.7332H94.2513V39.2665H91.9384L83.9588 20.7271V39.2665H81.8771V17.7332Z" fill="white"/>
<path d="M108.938 17.7332V19.8059H101.19V26.8301H108.129V28.7877H101.19V37.1938H108.938V39.1514H98.8771V17.7332H108.938Z" fill="white"/>
<path d="M113.333 32.9333C113.565 34.6606 114.027 35.8121 114.721 36.6182C115.415 37.4242 116.34 37.8848 117.612 37.8848C117.728 37.8848 117.844 37.8848 117.959 37.8848C118.075 37.8848 118.19 37.8848 118.306 37.8848C119.116 37.7697 119.925 37.3091 120.619 36.6182C121.313 35.9273 121.66 34.8909 121.66 33.6242V32.8182C121.544 31.897 121.197 31.3212 120.503 30.8606C119.81 30.4 119 29.9394 118.075 29.5939C117.844 29.4788 117.728 29.4788 117.497 29.3636C117.265 29.2485 117.034 29.1333 116.918 29.1333C115.646 28.6727 114.605 27.9818 113.565 27.0606C112.524 26.2545 112.061 24.8727 112.061 23.0303C112.061 22.9152 112.061 22.9151 112.061 22.8C112.061 22.6848 112.061 22.5697 112.061 22.5697V22.4545C112.061 22.4545 112.061 22.4545 112.061 22.3394C112.061 22.2242 112.061 22.2242 112.061 22.1091C112.061 21.9939 112.061 21.9939 112.061 21.8788C112.177 20.497 112.755 19.3455 113.796 18.6545C114.837 17.9636 115.993 17.6182 117.15 17.503H117.497C117.612 17.503 117.728 17.503 117.844 17.503C119.116 17.6182 120.388 18.0788 121.429 19C122.469 19.9212 123.048 21.0727 123.163 22.6848H121.082C121.082 21.6485 120.735 20.8424 120.041 20.1515C119.347 19.4606 118.537 19 117.612 18.8848C117.497 18.8848 117.381 18.8848 117.381 18.8848C117.265 18.8848 117.15 18.8848 117.15 18.8848C116.34 18.8848 115.646 19.1152 115.068 19.6909C114.374 20.2667 114.027 21.1879 113.912 22.4545V22.5697V22.6848C113.912 22.8 113.912 22.8 113.912 22.9151V23.0303C113.912 24.4121 114.374 25.4485 115.299 26.0242C116.224 26.6 117.265 27.1758 118.422 27.6364C118.537 27.6364 118.537 27.7515 118.653 27.7515C118.769 27.7515 118.769 27.7515 118.884 27.8667C120.041 28.3273 121.197 28.903 122.238 29.7091C123.279 30.4 123.741 31.5515 123.857 33.2788V33.3939C123.857 35.3515 123.279 36.9636 122.007 38C120.735 39.0364 119.463 39.6121 117.959 39.7273H117.728H117.497C115.993 39.7273 114.605 39.1515 113.449 38.1151C112.177 37.0788 111.599 35.4667 111.599 33.2788V33.1636C111.599 33.1636 111.599 33.1636 111.599 33.0485V32.9333V32.8182L113.333 32.9333Z" fill="white"/>
<path d="M137.851 17.7332V19.8059H132.878V39.2665H130.796V19.8059H125.823V17.7332H137.851Z" fill="white"/>
<path d="M143.401 21.7636C142.823 23.6061 142.591 25.7939 142.591 28.3273C142.591 28.903 142.591 29.4788 142.591 30.1697C142.591 30.8606 142.707 31.4364 142.707 32.1273C142.938 33.6242 143.285 34.8909 143.864 36.1576C144.442 37.4242 145.483 38 146.87 38.1152H146.986C146.986 38.1152 146.986 38.1152 147.102 38.1152C148.605 38.1152 149.646 37.5394 150.34 36.3879C150.918 35.2364 151.381 33.9697 151.496 32.4727C151.612 31.897 151.612 31.3212 151.612 30.7455C151.612 30.1697 151.612 29.7091 151.612 29.1333V27.5212C151.612 27.0606 151.612 26.4848 151.612 25.9091C151.612 25.3333 151.496 24.6424 151.381 24.0667C151.149 22.9152 150.802 21.7636 150.108 20.7273C149.53 19.6909 148.489 19.1152 147.102 19C145.251 19.1152 143.979 19.9212 143.401 21.7636ZM152.421 20.497C153.231 22.4545 153.694 24.9879 153.694 28.3273C153.694 28.903 153.694 29.5939 153.694 30.4C153.694 31.0909 153.578 31.897 153.578 32.5879C153.347 34.3152 152.768 35.9273 151.959 37.4242C151.034 38.9212 149.53 39.6121 147.217 39.6121C145.02 39.6121 143.517 38.8061 142.707 37.3091C141.898 35.8121 141.435 34.0848 141.204 32.2424C141.088 31.5515 141.088 30.7455 141.088 30.0545C141.088 29.3636 141.088 28.6727 141.088 28.097C141.088 27.9818 141.088 27.8667 141.088 27.7515C141.088 27.6364 141.088 27.5212 141.088 27.4061C141.088 27.2909 141.088 27.1758 141.088 26.9455C141.088 26.8303 141.088 26.6 141.088 26.4848C141.088 26.0242 141.088 25.4485 141.088 24.8727C141.088 24.297 141.204 23.7212 141.319 23.1455C141.551 21.7636 142.129 20.3818 143.054 19.2303C143.979 18.0788 145.483 17.3879 147.564 17.2727C149.877 17.6182 151.496 18.6545 152.421 20.497Z" fill="white"/>
<path d="M160.402 27.7514H163.64C165.028 27.7514 166.068 27.2908 166.762 26.4847C167.456 25.6786 167.919 24.7574 167.919 23.7211V23.6059V23.4908V23.3756V23.2605C167.803 22.3392 167.456 21.418 166.762 20.612C166.068 19.8059 165.028 19.4605 163.755 19.4605H160.286V27.7514H160.402ZM163.409 17.7332C165.721 17.7332 167.34 18.3089 168.381 19.4605C169.422 20.612 169.885 21.8786 169.885 23.1453V23.4908C169.885 23.6059 169.885 23.7211 169.885 23.7211C169.769 25.218 169.075 26.4847 167.919 27.7514C166.762 28.9029 165.143 29.5938 163.177 29.5938H160.402V39.2665H158.436V17.7332H163.409Z" fill="white"/>
<path d="M64.6463 45.8303H71.8163L77.483 62.8727L76.5578 45.8303H83.4966V75.1939H76.2109L70.5442 58.8424L71.4694 75.1939H64.6463V45.8303Z" fill="white"/>
<path d="M98.6463 69.5515C99.4558 69.2061 99.9184 68.4 99.9184 67.0182V53.5455C99.9184 52.3939 99.5714 51.703 98.8776 51.3576C98.1837 51.0121 97.3741 50.7818 96.5646 50.7818H95.9864H95.5238V70.1273C96.7959 70.0121 97.8367 69.897 98.6463 69.5515ZM88.2381 45.8303H96.449C100.381 45.8303 103.041 46.2909 104.66 47.097C106.279 48.0182 107.088 49.7455 107.088 52.5091V68.0545C107.088 70.2424 106.395 71.9697 105.007 73.2364C103.619 74.503 101.306 75.1939 98.068 75.1939H88.3537V45.8303H88.2381Z" fill="white"/>
<path d="M115.878 51.703H110.327V45.8303H128.368V51.703H123.164V75.3091H115.878V51.703Z" fill="white"/>
</g>
<defs>
<clipPath id="clip0_1_293">
<rect width="170" height="76" fill="white"/>
</clipPath>
</defs>
</svg>
